<svg width="411" height="409" viewBox="0 0 411 409" fill="none" xmlns="http://www.w3.org/2000/svg">
<g clip-path="url(#clip0_1_199)">
<path d="M169.607 407.398C166.704 406.897 163.9 405.796 162.098 404.695L163.3 397.886C164.902 399.288 167.505 400.49 170.208 400.99C172.911 401.491 174.714 400.79 175.014 399.388C175.214 397.987 173.712 396.785 170.508 394.783C165.903 391.979 162.899 389.376 163.8 384.17C164.701 378.763 169.307 376.26 176.616 377.461C179.92 378.062 183.124 379.264 185.226 380.565L184.025 387.674C182.123 386.272 179.82 384.971 177.517 384.37C176.716 384.17 175.915 383.969 175.214 383.969C172.811 383.769 171.309 384.17 171.109 385.371C170.809 386.873 172.511 387.974 175.915 389.977C180.521 392.68 183.324 395.283 182.423 400.59C181.222 405.896 176.215 408.599 169.607 407.398Z" fill="#C4C4C4"/>
<path d="M169.607 407.398C166.704 406.897 163.9 405.796 162.098 404.695L163.3 397.886C164.902 399.288 167.505 400.49 170.208 400.99C172.911 401.491 174.714 400.79 175.014 399.388C175.214 397.987 173.712 396.785 170.508 394.783C165.903 391.979 162.899 389.376 163.8 384.17C164.701 378.763 169.307 376.26 176.616 377.461C179.92 378.062 183.124 379.264 185.226 380.565L184.025 387.674C182.123 386.272 179.82 384.971 177.517 384.37C176.716 384.17 175.915 383.969 175.214 383.969C172.811 383.769 171.309 384.17 171.109 385.371C170.809 386.873 172.511 387.974 175.915 389.977C180.521 392.68 183.324 395.283 182.423 400.59C181.222 405.896 176.215 408.599 169.607 407.398Z" fill="#10099F"/>
<path d="M150.985 371.755L141.173 399.689L134.064 397.186L143.876 369.251L150.985 371.755Z" fill="#C4C4C4"/>
<path d="M150.985 371.755L141.173 399.689L134.064 397.186L143.876 369.251L150.985 371.755Z" fill="#10099F"/>
<path d="M101.324 382.167C97.5192 379.965 95.3165 377.562 94.1151 375.759L97.5192 369.852C98.7207 371.554 100.723 373.957 104.227 375.96C109.133 378.763 113.939 376.961 116.142 373.056C118.445 369.051 117.644 364.045 113.038 361.342C112.137 360.841 111.036 360.341 110.135 360.14L106.43 366.448L100.223 362.844L106.33 352.231C109.434 352.431 113.238 353.632 116.342 355.435C124.652 360.24 126.955 369.352 122.65 376.761C118.345 384.07 109.234 386.773 101.324 382.167Z" fill="#C4C4C4"/>
<path d="M101.324 382.167C97.5192 379.965 95.3165 377.562 94.1151 375.759L97.5192 369.852C98.7207 371.554 100.723 373.957 104.227 375.96C109.133 378.763 113.939 376.961 116.142 373.056C118.445 369.051 117.644 364.045 113.038 361.342C112.137 360.841 111.036 360.341 110.135 360.14L106.43 366.448L100.223 362.844L106.33 352.231C109.434 352.431 113.238 353.632 116.342 355.435C124.652 360.24 126.955 369.352 122.65 376.761C118.345 384.07 109.234 386.773 101.324 382.167Z" fill="#10099F"/>
<path d="M95.0162 341.017L75.7927 363.544L70.0857 358.638L89.3092 336.111L95.0162 341.017Z" fill="#C4C4C4"/>
<path d="M95.0162 341.017L75.7927 363.544L70.0857 358.638L89.3092 336.111L95.0162 341.017Z" fill="#10099F"/>
<path d="M77.2944 324.697L54.6668 343.92L49.7608 338.213L67.4824 323.095L60.574 314.985L65.3799 310.88L77.2944 324.697Z" fill="#C4C4C4"/>
<path d="M77.2944 324.697L54.6668 343.92L49.7608 338.213L67.4824 323.095L60.574 314.985L65.3799 310.88L77.2944 324.697Z" fill="#10099F"/>
<path d="M57.4703 298.965L31.7388 313.683L28.0343 307.175L48.259 295.661L42.9525 286.35L48.4592 283.246L57.4703 298.965Z" fill="#C4C4C4"/>
<path d="M57.4703 298.965L31.7388 313.683L28.0343 307.175L48.259 295.661L42.9525 286.35L48.4592 283.246L57.4703 298.965Z" fill="#10099F"/>
<path d="M14.3175 279.442L12.0147 272.333L29.0355 266.926C32.3396 265.825 33.7413 263.522 32.6399 260.118C31.5386 256.814 29.1356 255.713 25.7315 256.714L8.71067 262.121L6.40786 254.912L24.2296 249.305C30.8377 247.202 36.6448 250.306 39.1479 258.116C41.6509 265.825 38.6473 271.832 32.0392 273.935L14.3175 279.442Z" fill="#C4C4C4"/>
<path d="M14.3175 279.442L12.0147 272.333L29.0355 266.926C32.3396 265.825 33.7413 263.522 32.6399 260.118C31.5386 256.814 29.1356 255.713 25.7315 256.714L8.71067 262.121L6.40786 254.912L24.2296 249.305C30.8377 247.202 36.6448 250.306 39.1479 258.116C41.6509 265.825 38.6473 271.832 32.0392 273.935L14.3175 279.442Z" fill="#10099F"/>
<path d="M1.70208 232.084V231.884L13.917 216.665L0 203.048V202.848L29.9366 201.046L30.3371 208.255L15.3187 209.156L17.0208 210.958C18.9231 212.66 20.7253 214.362 22.6277 216.164C21.0257 218.067 19.3236 220.069 17.7217 221.971L16.2198 223.974L31.2382 223.073L31.6387 230.181L1.70208 232.084Z" fill="#C4C4C4"/>
<path d="M1.70208 232.084V231.884L13.917 216.665L0 203.048V202.848L29.9366 201.046L30.3371 208.255L15.3187 209.156L17.0208 210.958C18.9231 212.66 20.7253 214.362 22.6277 216.164C21.0257 218.067 19.3236 220.069 17.7217 221.971L16.2198 223.974L31.2382 223.073L31.6387 230.181L1.70208 232.084Z" fill="#10099F"/>
<path d="M6.90847 154.088L9.21128 146.98L26.132 152.486C29.436 153.588 31.9391 152.386 33.0404 149.082C34.1418 145.778 32.74 143.375 29.436 142.374L12.5153 136.867L14.8181 129.659L32.5398 135.466C39.1479 137.568 42.0514 143.576 39.5484 151.285C37.0453 158.994 31.2382 162.098 24.6301 159.996L6.90847 154.088Z" fill="#C4C4C4"/>
<path d="M6.90847 154.088L9.21128 146.98L26.132 152.486C29.436 153.588 31.9391 152.386 33.0404 149.082C34.1418 145.778 32.74 143.375 29.436 142.374L12.5153 136.867L14.8181 129.659L32.5398 135.466C39.1479 137.568 42.0514 143.576 39.5484 151.285C37.0453 158.994 31.2382 162.098 24.6301 159.996L6.90847 154.088Z" fill="#10099F"/>
<path d="M24.4298 108.232L43.6533 102.425C44.6545 102.025 45.6558 101.824 46.657 101.424L33.9414 93.6144L37.8462 87.3067L63.3774 103.026L63.1772 103.226L43.8536 109.133L40.95 110.135L53.6656 117.944L49.7608 124.252L24.2296 108.533L24.4298 108.232Z" fill="#C4C4C4"/>
<path d="M24.4298 108.232L43.6533 102.425C44.6545 102.025 45.6558 101.824 46.657 101.424L33.9414 93.6144L37.8462 87.3067L63.3774 103.026L63.1772 103.226L43.8536 109.133L40.95 110.135L53.6656 117.944L49.7608 124.252L24.2296 108.533L24.4298 108.232Z" fill="#10099F"/>
<path d="M73.5899 90.1102L51.7632 70.1858L56.8695 64.5789L78.7963 84.5033L73.5899 90.1102Z" fill="#C4C4C4"/>
<path d="M73.5899 90.1102L51.7632 70.1858L56.8695 64.5789L78.7963 84.5033L73.5899 90.1102Z" fill="#10099F"/>
<path d="M76.1931 46.4568L84.2029 50.6619C86.8061 52.0636 89.4093 53.4654 91.3116 54.767C91.1114 53.6656 89.8098 48.9599 89.3092 46.7572L87.3067 38.0465L93.8147 33.0404L100.022 66.0808L99.7219 66.281L69.6852 51.4629L76.1931 46.4568Z" fill="#C4C4C4"/>
<path d="M76.1931 46.4568L84.2029 50.6619C86.8061 52.0636 89.4093 53.4654 91.3116 54.767C91.1114 53.6656 89.8098 48.9599 89.3092 46.7572L87.3067 38.0465L93.8147 33.0404L100.022 66.0808L99.7219 66.281L69.6852 51.4629L76.1931 46.4568Z" fill="#10099F"/>
<path d="M110.635 23.6288L128.257 15.4188L130.96 21.1257L120.147 26.1318L122.35 30.9377L131.561 26.6325L134.064 32.0391L124.853 36.3443L127.256 41.4506L138.569 36.1441L141.273 41.8511L123.151 50.4616L110.635 23.6288Z" fill="#C4C4C4"/>
<path d="M110.635 23.6288L128.257 15.4188L130.96 21.1257L120.147 26.1318L122.35 30.9377L131.561 26.6325L134.064 32.0391L124.853 36.3443L127.256 41.4506L138.569 36.1441L141.273 41.8511L123.151 50.4616L110.635 23.6288Z" fill="#10099F"/>
<path d="M155.29 37.1455L148.582 8.31027L159.095 5.90733C166.003 4.30537 171.51 6.50806 173.012 13.016C174.013 17.2212 172.511 20.4251 169.707 22.6278L178.018 31.9392L170.408 33.7414L163.5 25.3311L160.196 26.0319L162.399 35.5436L155.29 37.1455ZM158.894 20.1247L162.599 19.2236C164.801 18.723 166.203 17.3213 165.602 14.618C165.002 12.1149 162.999 11.4141 160.797 11.9147L157.192 12.8158L158.894 20.1247Z" fill="#C4C4C4"/>
<path d="M155.29 37.1455L148.582 8.31027L159.095 5.90733C166.003 4.30537 171.51 6.50806 173.012 13.016C174.013 17.2212 172.511 20.4251 169.707 22.6278L178.018 31.9392L170.408 33.7414L163.5 25.3311L160.196 26.0319L162.399 35.5436L155.29 37.1455ZM158.894 20.1247L162.599 19.2236C164.801 18.723 166.203 17.3213 165.602 14.618C165.002 12.1149 162.999 11.4141 160.797 11.9147L157.192 12.8158L158.894 20.1247Z" fill="#10099F"/>
<path d="M201.346 -1.60589e-05C204.35 -0.100138 207.253 0.400474 209.256 1.20145L209.456 8.1099C207.654 7.00855 204.85 6.40782 202.147 6.40782C199.444 6.50794 197.742 7.50916 197.742 8.91088C197.742 10.3126 199.544 11.2137 203.048 12.5153C208.054 14.3175 211.559 16.4201 211.659 21.6264C211.759 27.1332 207.754 30.4372 200.445 30.6374C197.041 30.7376 193.637 30.1368 191.434 29.2357L191.234 22.0269C193.336 23.1283 195.839 23.8291 198.242 24.0294C199.043 24.1295 199.844 24.0294 200.545 24.0294C202.948 23.8291 204.35 23.1283 204.25 21.9268C204.25 20.3248 202.347 19.624 198.643 18.3224C193.637 16.5202 190.333 14.6179 190.233 9.11112C190.233 3.80464 194.638 0.200229 201.346 -1.60589e-05Z" fill="#C4C4C4"/>
<path d="M201.346 -1.60589e-05C204.35 -0.100138 207.253 0.400474 209.256 1.20145L209.456 8.1099C207.654 7.00855 204.85 6.40782 202.147 6.40782C199.444 6.50794 197.742 7.50916 197.742 8.91088C197.742 10.3126 199.544 11.2137 203.048 12.5153C208.054 14.3175 211.559 16.4201 211.659 21.6264C211.759 27.1332 207.754 30.4372 200.445 30.6374C197.041 30.7376 193.637 30.1368 191.434 29.2357L191.234 22.0269C193.336 23.1283 195.839 23.8291 198.242 24.0294C199.043 24.1295 199.844 24.0294 200.545 24.0294C202.948 23.8291 204.35 23.1283 204.25 21.9268C204.25 20.3248 202.347 19.624 198.643 18.3224C193.637 16.5202 190.333 14.6179 190.233 9.11112C190.233 3.80464 194.638 0.200229 201.346 -1.60589e-05Z" fill="#10099F"/>
<path d="M226.577 31.3383L230.682 2.00245L238.091 3.00367L233.986 32.3395L226.577 31.3383Z" fill="#C4C4C4"/>
<path d="M226.577 31.3383L230.682 2.00245L238.091 3.00367L233.986 32.3395L226.577 31.3383Z" fill="#10099F"/>
<path d="M257.014 6.70815L279.241 13.8168L277.339 19.8242L269.83 17.4212L262.721 39.6484L255.512 37.3456L262.621 15.1184L255.112 12.7155L257.014 6.70815Z" fill="#C4C4C4"/>
<path d="M257.014 6.70815L279.241 13.8168L277.339 19.8242L269.83 17.4212L262.721 39.6484L255.512 37.3456L262.621 15.1184L255.112 12.7155L257.014 6.70815Z" fill="#10099F"/>
<path d="M280.243 46.0562L307.977 27.4334L308.277 27.6337L305.974 60.9744L299.166 57.0697L299.566 52.0636L290.956 47.0574L286.951 49.961L280.243 46.0562ZM300.367 46.6569C300.668 44.1539 301.068 40.95 301.469 39.1478C300.668 39.7485 297.163 42.652 295.461 43.8535L300.367 46.6569Z" fill="#C4C4C4"/>
<path d="M280.243 46.0562L307.977 27.4334L308.277 27.6337L305.974 60.9744L299.166 57.0697L299.566 52.0636L290.956 47.0574L286.951 49.961L280.243 46.0562ZM300.367 46.6569C300.668 44.1539 301.068 40.95 301.469 39.1478C300.668 39.7485 297.163 42.652 295.461 43.8535L300.367 46.6569Z" fill="#10099F"/>
<path d="M334.409 45.6559L351.73 61.3751L347.525 66.0809L341.718 60.7744L326.099 77.9954L320.492 72.8892L336.111 55.6682L330.304 50.3617L334.409 45.6559Z" fill="#C4C4C4"/>
<path d="M334.409 45.6559L351.73 61.3751L347.525 66.0809L341.718 60.7744L326.099 77.9954L320.492 72.8892L336.111 55.6682L330.304 50.3617L334.409 45.6559Z" fill="#10099F"/>
<path d="M341.017 94.115L364.245 75.7926L368.851 81.6998L345.623 100.022L341.017 94.115Z" fill="#C4C4C4"/>
<path d="M341.017 94.115L364.245 75.7926L368.851 81.6998L345.623 100.022L341.017 94.115Z" fill="#10099F"/>
<path d="M386.372 107.732C387.774 110.335 388.675 113.238 388.975 115.341L382.868 118.645C382.968 116.542 382.267 113.739 380.966 111.336C379.664 108.933 377.962 107.932 376.66 108.633C375.459 109.334 375.459 111.236 375.859 114.94C376.56 120.247 376.36 124.252 371.654 126.755C366.848 129.358 362.043 127.356 358.438 120.848C356.836 117.844 355.735 114.64 355.535 112.237L361.842 108.733C361.842 111.136 362.343 113.739 363.344 115.942C363.645 116.743 364.045 117.343 364.446 118.044C365.747 120.047 366.949 120.948 368.05 120.347C369.452 119.646 369.251 117.644 368.651 113.739C367.95 108.433 368.15 104.628 372.956 102.025C377.862 99.5216 383.068 101.724 386.372 107.732Z" fill="#C4C4C4"/>
<path d="M386.372 107.732C387.774 110.335 388.675 113.238 388.975 115.341L382.868 118.645C382.968 116.542 382.267 113.739 380.966 111.336C379.664 108.933 377.962 107.932 376.66 108.633C375.459 109.334 375.459 111.236 375.859 114.94C376.56 120.247 376.36 124.252 371.654 126.755C366.848 129.358 362.043 127.356 358.438 120.848C356.836 117.844 355.735 114.64 355.535 112.237L361.842 108.733C361.842 111.136 362.343 113.739 363.344 115.942C363.645 116.743 364.045 117.343 364.446 118.044C365.747 120.047 366.949 120.948 368.05 120.347C369.452 119.646 369.251 117.644 368.651 113.739C367.95 108.433 368.15 104.628 372.956 102.025C377.862 99.5216 383.068 101.724 386.372 107.732Z" fill="#10099F"/>
<path d="M376.36 166.003L405.396 159.996L406.897 167.405L377.862 173.412L376.36 166.003Z" fill="#C4C4C4"/>
<path d="M376.36 166.003L405.396 159.996L406.897 167.405L377.862 173.412L376.36 166.003Z" fill="#10099F"/>
<path d="M410.802 198.343C410.902 201.346 410.402 204.25 409.701 206.252L402.792 206.553C403.794 204.75 404.495 201.947 404.394 199.244C404.294 196.54 403.293 194.838 401.791 194.938C400.389 195.039 399.488 196.741 398.287 200.245C396.485 205.251 394.482 208.755 389.276 208.956C383.769 209.156 380.365 205.151 380.065 197.842C379.965 194.438 380.465 191.034 381.366 188.831L388.575 188.531C387.574 190.633 386.773 193.236 386.673 195.639C386.573 196.44 386.673 197.241 386.673 197.942C386.973 200.345 387.674 201.647 388.875 201.647C390.477 201.546 391.178 199.744 392.38 196.04C394.082 191.034 395.984 187.73 401.491 187.529C406.897 187.229 410.602 191.634 410.802 198.343Z" fill="#C4C4C4"/>
<path d="M410.802 198.343C410.902 201.346 410.402 204.25 409.701 206.252L402.792 206.553C403.794 204.75 404.495 201.947 404.394 199.244C404.294 196.54 403.293 194.838 401.791 194.938C400.389 195.039 399.488 196.741 398.287 200.245C396.485 205.251 394.482 208.755 389.276 208.956C383.769 209.156 380.365 205.151 380.065 197.842C379.965 194.438 380.465 191.034 381.366 188.831L388.575 188.531C387.574 190.633 386.773 193.236 386.673 195.639C386.573 196.44 386.673 197.241 386.673 197.942C386.973 200.345 387.674 201.647 388.875 201.647C390.477 201.546 391.178 199.744 392.38 196.04C394.082 191.034 395.984 187.73 401.491 187.529C406.897 187.229 410.602 191.634 410.802 198.343Z" fill="#10099F"/>
<path d="M379.965 223.874L409.3 228.279L408.199 235.688L385.171 232.184L383.569 242.797L377.261 241.896L379.965 223.874Z" fill="#C4C4C4"/>
<path d="M379.965 223.874L409.3 228.279L408.199 235.688L385.171 232.184L383.569 242.797L377.261 241.896L379.965 223.874Z" fill="#10099F"/>
<path d="M374.958 252.609L397.886 276.939L397.786 277.239L364.446 280.543L367.249 273.134L372.255 272.733L375.759 263.422L372.255 259.918L374.958 252.609ZM377.662 272.633C380.265 272.533 383.369 272.433 385.271 272.533C384.47 271.832 381.166 268.829 379.664 267.427L377.662 272.633Z" fill="#C4C4C4"/>
<path d="M374.958 252.609L397.886 276.939L397.786 277.239L364.446 280.543L367.249 273.134L372.255 272.733L375.759 263.422L372.255 259.918L374.958 252.609ZM377.662 272.633C380.265 272.533 383.369 272.433 385.271 272.533C384.47 271.832 381.166 268.829 379.664 267.427L377.662 272.633Z" fill="#10099F"/>
<path d="M383.068 309.078L363.645 314.184C362.643 314.484 361.542 314.785 360.641 315.085L373.056 323.395L368.951 329.503L344.021 312.782L344.221 312.582L363.745 307.376L366.748 306.475L354.333 298.164L358.438 292.057L383.369 308.777L383.068 309.078Z" fill="#C4C4C4"/>
<path d="M383.068 309.078L363.645 314.184C362.643 314.484 361.542 314.785 360.641 315.085L373.056 323.395L368.951 329.503L344.021 312.782L344.221 312.582L363.745 307.376L366.748 306.475L354.333 298.164L358.438 292.057L383.369 308.777L383.068 309.078Z" fill="#10099F"/>
<path d="M333.608 325.398L353.732 347.124L346.424 353.833C338.814 360.841 329.803 360.641 323.996 354.333C318.189 348.025 318.69 339.115 326.299 332.106L333.608 325.398ZM330.704 336.812C326.299 340.917 326.599 345.923 329.703 349.327C332.807 352.731 337.813 353.332 342.218 349.227L343.92 347.625L332.406 335.21L330.704 336.812Z" fill="#C4C4C4"/>
<path d="M333.608 325.398L353.732 347.124L346.424 353.833C338.814 360.841 329.803 360.641 323.996 354.333C318.189 348.025 318.69 339.115 326.299 332.106L333.608 325.398ZM330.704 336.812C326.299 340.917 326.599 345.923 329.703 349.327C332.807 352.731 337.813 353.332 342.218 349.227L343.92 347.625L332.406 335.21L330.704 336.812Z" fill="#10099F"/>
<path d="M301.669 351.83L317.388 376.961L310.98 380.966L295.261 355.835L301.669 351.83Z" fill="#C4C4C4"/>
<path d="M301.669 351.83L317.388 376.961L310.98 380.966L295.261 355.835L301.669 351.83Z" fill="#10099F"/>
<path d="M283.847 362.744L281.144 396.084L280.843 396.184L256.113 373.657L263.422 370.753L267.026 374.157L276.338 370.453L276.538 365.447L283.847 362.744ZM270.831 378.162C272.633 379.965 274.836 382.267 276.037 383.669C276.037 382.568 276.037 378.062 276.037 376.06L270.831 378.162Z" fill="#C4C4C4"/>
<path d="M283.847 362.744L281.144 396.084L280.843 396.184L256.113 373.657L263.422 370.753L267.026 374.157L276.338 370.453L276.538 365.447L283.847 362.744ZM270.831 378.162C272.633 379.965 274.836 382.267 276.037 383.669C276.037 382.568 276.037 378.062 276.037 376.06L270.831 378.162Z" fill="#10099F"/>
<path d="M247.903 405.796L228.78 408.9L227.778 402.692L239.493 400.79L238.692 395.584L228.68 397.186L227.678 391.278L237.691 389.676L236.789 384.069L224.474 386.072L223.473 379.864L243.197 376.66L247.903 405.796Z" fill="#C4C4C4"/>
<path d="M247.903 405.796L228.78 408.9L227.778 402.692L239.493 400.79L238.692 395.584L228.68 397.186L227.678 391.278L237.691 389.676L236.789 384.069L224.474 386.072L223.473 379.864L243.197 376.66L247.903 405.796Z" fill="#10099F"/>
<path d="M124.352 267.126C127.055 266.926 125.353 259.818 127.756 258.516C130.359 257.014 135.365 255.612 136.667 260.018C139.17 259.818 142.674 258.516 143.576 257.515C150.784 249.305 142.074 242.596 140.872 241.896C138.87 240.694 133.363 238.992 132.362 241.595C132.963 242.897 135.165 242.096 136.667 242.596C138.269 243.197 139.871 244.299 140.472 245.4C141.373 247.002 141.072 249.405 138.87 249.605C137.668 249.705 134.364 247.803 131.16 247.703C125.153 247.603 115.041 251.307 113.038 246.101C111.636 242.496 117.844 223.673 120.748 215.964C121.148 214.863 122.75 211.458 121.348 211.258C121.248 211.258 120.748 211.158 120.447 211.559C118.845 215.263 108.633 242.296 107.531 246.902C106.63 250.706 106.831 253.81 108.533 255.813C110.435 257.915 112.638 257.815 115.241 257.615C119.746 257.314 121.949 258.115 123.05 261.62C123.651 263.622 123.851 264.924 124.352 267.126Z" fill="#C4C4C4"/>
<path d="M124.352 267.126C127.055 266.926 125.353 259.818 127.756 258.516C130.359 257.014 135.365 255.612 136.667 260.018C139.17 259.818 142.674 258.516 143.576 257.515C150.784 249.305 142.074 242.596 140.872 241.896C138.87 240.694 133.363 238.992 132.362 241.595C132.963 242.897 135.165 242.096 136.667 242.596C138.269 243.197 139.871 244.299 140.472 245.4C141.373 247.002 141.072 249.405 138.87 249.605C137.668 249.705 134.364 247.803 131.16 247.703C125.153 247.603 115.041 251.307 113.038 246.101C111.636 242.496 117.844 223.673 120.748 215.964C121.148 214.863 122.75 211.458 121.348 211.258C121.248 211.258 120.748 211.158 120.447 211.559C118.845 215.263 108.633 242.296 107.531 246.902C106.63 250.706 106.831 253.81 108.533 255.813C110.435 257.915 112.638 257.815 115.241 257.615C119.746 257.314 121.949 258.115 123.05 261.62C123.651 263.622 123.851 264.924 124.352 267.126Z" fill="#10099F"/>
<path d="M137.268 294.059C139.971 291.156 147.48 289.654 149.182 284.348C149.282 283.947 149.282 281.945 148.381 281.845C147.08 281.644 147.08 282.946 145.978 283.447C143.575 284.348 140.972 283.447 137.768 283.447C133.363 283.447 128.457 284.147 128.257 287.351C131.16 289.954 134.865 290.155 135.365 296.563C136.767 296.462 136.767 294.961 137.268 294.059Z" fill="#C4C4C4"/>
<path d="M137.268 294.059C139.971 291.156 147.48 289.654 149.182 284.348C149.282 283.947 149.282 281.945 148.381 281.845C147.08 281.644 147.08 282.946 145.978 283.447C143.575 284.348 140.972 283.447 137.768 283.447C133.363 283.447 128.457 284.147 128.257 287.351C131.16 289.954 134.865 290.155 135.365 296.563C136.767 296.462 136.767 294.961 137.268 294.059Z" fill="#10099F"/>
<path d="M136.166 217.165C133.864 220.77 139.471 222.572 141.773 223.473C145.578 224.975 150.384 222.772 152.887 219.769C153.388 219.168 154.289 217.165 154.489 216.465C154.889 215.263 154.889 214.863 154.088 214.362C153.388 214.062 152.386 213.561 151.285 212.96C147.38 215.363 142.074 220.069 136.166 217.165Z" fill="#C4C4C4"/>
<path d="M136.166 217.165C133.864 220.77 139.471 222.572 141.773 223.473C145.578 224.975 150.384 222.772 152.887 219.769C153.388 219.168 154.289 217.165 154.489 216.465C154.889 215.263 154.889 214.863 154.088 214.362C153.388 214.062 152.386 213.561 151.285 212.96C147.38 215.363 142.074 220.069 136.166 217.165Z" fill="#10099F"/>
<path d="M137.768 277.339C140.672 277.339 143.275 279.041 145.878 278.941C147.881 278.841 152.687 278.24 153.588 273.835C147.38 273.835 143.375 272.934 138.67 271.031C136.667 270.23 134.564 268.128 132.562 268.628C130.059 269.329 127.256 272.233 122.65 272.133C123.151 274.836 125.253 277.84 128.157 278.54C131.361 279.241 134.464 277.339 137.768 277.339Z" fill="#C4C4C4"/>
<path d="M137.768 277.339C140.672 277.339 143.275 279.041 145.878 278.941C147.881 278.841 152.687 278.24 153.588 273.835C147.38 273.835 143.375 272.934 138.67 271.031C136.667 270.23 134.564 268.128 132.562 268.628C130.059 269.329 127.256 272.233 122.65 272.133C123.151 274.836 125.253 277.84 128.157 278.54C131.361 279.241 134.464 277.339 137.768 277.339Z" fill="#10099F"/>
<path d="M129.558 203.649C129.558 204.149 129.959 204.75 130.159 205.251C133.263 204.25 136.867 205.551 136.367 209.456C136.267 210.257 135.866 210.958 135.065 211.358C135.666 213.261 135.566 213.361 137.068 214.562C136.967 214.062 136.867 213.861 137.168 212.96C138.67 212.059 140.472 211.458 141.072 208.855C143.876 210.657 142.875 213.761 142.374 214.762C145.478 214.162 147.781 212.96 149.283 211.558C145.478 209.957 142.374 203.949 137.268 202.748C134.865 202.147 131.561 202.147 129.558 203.649Z" fill="#C4C4C4"/>
<path d="M129.558 203.649C129.558 204.149 129.959 204.75 130.159 205.251C133.263 204.25 136.867 205.551 136.367 209.456C136.267 210.257 135.866 210.958 135.065 211.358C135.666 213.261 135.566 213.361 137.068 214.562C136.967 214.062 136.867 213.861 137.168 212.96C138.67 212.059 140.472 211.458 141.072 208.855C143.876 210.657 142.875 213.761 142.374 214.762C145.478 214.162 147.781 212.96 149.283 211.558C145.478 209.957 142.374 203.949 137.268 202.748C134.865 202.147 131.561 202.147 129.558 203.649Z" fill="#10099F"/>
<path d="M214.562 52.0636C210.457 51.8634 206.452 51.7633 202.447 51.8634C202.247 51.8634 202.047 51.8634 201.747 51.8634C199.944 51.8634 198.042 51.9635 196.24 52.0636C195.839 52.0636 195.339 52.1637 194.938 52.1637C193.236 52.2639 191.434 52.364 189.732 52.5642C189.432 52.5642 189.131 52.6644 188.831 52.6644C185.827 52.9647 182.823 53.4653 179.82 53.9659C178.919 54.1662 178.018 54.2663 177.016 54.4666C175.915 54.6668 174.714 54.9672 173.612 55.1674C172.411 55.3677 171.309 55.668 170.108 55.9684C169.007 56.1686 168.005 56.469 166.904 56.7694C165.703 57.0697 164.501 57.4702 163.3 57.7706C162.298 58.071 161.297 58.3713 160.296 58.6717C158.994 59.0722 157.793 59.4727 156.591 59.8732C155.69 60.1735 154.689 60.4739 153.788 60.8744C152.386 61.375 150.985 61.8756 149.583 62.4764C147.681 63.2773 145.678 64.0783 143.776 64.8793C143.175 65.1797 142.474 65.3799 141.873 65.6803C140.372 66.3811 138.97 67.082 137.468 67.7828C137.068 67.9831 136.567 68.1833 136.166 68.4837C134.564 69.2847 132.963 70.1858 131.361 70.9868C131.16 71.0869 130.96 71.187 130.76 71.2871C127.256 73.2896 123.751 75.3921 120.347 77.5948C119.646 77.9953 119.146 78.6962 118.845 79.4972C118.445 80.5985 118.545 81.8 119.146 82.8012L132.162 104.127C111.837 122.149 95.3165 128.457 84.6034 135.265C83.7023 139.17 89.6095 150.184 106.33 142.274C91.1114 154.489 80.3983 171.309 80.4984 175.815C80.5985 179.419 81.8 180.421 91.5119 182.323C97.7194 183.524 105.829 184.526 109.033 189.832C115.741 200.946 120.948 203.749 126.555 202.548C127.656 202.347 129.058 201.446 129.959 200.645C138.67 194.137 144.176 200.645 148.782 204.75C152.887 208.355 153.087 209.356 158.394 211.458C165.302 214.062 175.414 209.556 183.224 211.859C184.125 212.159 185.126 212.159 185.126 210.057C185.126 209.456 185.026 209.056 183.324 208.154C168.506 204.35 155.49 190.433 141.673 189.031C135.365 188.43 132.362 191.434 127.556 193.236C124.452 194.438 117.944 195.739 116.843 189.432C116.743 181.422 123.751 176.716 129.258 176.616C142.074 176.416 153.588 175.815 161.397 174.613C161.397 174.613 166.704 173.812 167.004 173.612C176.015 172.911 194.237 186.528 201.847 197.341C213.861 214.462 233.786 232.384 249.705 231.984C232.284 236.789 215.964 230.982 203.248 210.858C202.948 210.357 202.447 209.957 201.847 209.456C205.151 216.264 206.152 225.175 205.051 238.892C204.951 242.597 205.651 244.599 208.555 248.704C224.575 270.631 208.755 287.752 208.655 287.852C194.137 302.37 164.501 308.177 161.197 309.178C136.667 316.687 137.368 300.968 136.567 300.067C135.966 299.366 134.564 299.366 134.364 300.067C133.663 302.069 133.363 306.975 133.864 308.377C134.965 311.681 135.666 313.583 141.173 316.387C146.279 318.89 155.49 318.69 159.495 318.389C169.908 317.488 182.623 316.387 194.938 312.983C205.852 309.979 212.46 308.677 201.346 324.897C192.235 335.11 172.11 344.621 160.496 351.83C168.005 354.133 175.715 355.735 183.624 356.936C218.567 341.317 221.17 284.948 228.379 273.334C231.683 268.028 245.8 268.228 252.409 270.23L252.108 272.733C248.904 291.156 255.713 296.663 252.308 306.375C241.195 338.013 228.98 350.528 212.66 358.438C222.272 357.938 231.783 356.636 240.894 354.433C245.2 348.426 250.606 339.615 253.61 333.708C259.918 321.293 264.223 307.976 265.424 294.16C270.03 296.763 274.536 299.566 278.941 302.67C283.246 312.983 281.744 327.801 277.339 340.616C279.742 339.315 282.746 337.613 285.149 336.111C285.95 335.61 286.65 335.21 287.451 334.709C290.155 327.6 291.957 319.991 291.957 312.682C292.958 313.483 293.959 314.284 294.961 315.085C298.164 317.588 301.368 319.891 304.773 321.994C311.281 316.487 317.288 310.279 322.795 303.771C299.466 295.762 325.798 275.537 289.254 266.926C327.2 269.73 314.885 286.951 327.2 298.265C331.906 292.057 336.311 285.449 340.016 278.44V278.34C350.729 258.616 356.836 237.19 358.138 214.562C363.444 129.859 298.865 57.1699 214.562 52.0636ZM92.8134 173.212C90.2103 172.01 92.7133 168.406 98.1199 160.997C137.969 106.43 244.098 136.567 250.907 135.466C255.913 134.665 183.124 97.1187 129.558 125.353C120.247 130.259 98.1199 139.37 96.7182 135.466C96.7182 135.466 122.65 122.45 133.964 112.237C134.665 111.636 135.466 111.036 136.267 110.635C137.969 109.334 139.671 108.032 141.473 106.73C161.798 94.4154 185.327 88.7084 209.256 90.1101C273.534 93.9148 322.795 148.381 319.09 211.358C318.89 215.563 318.289 219.669 317.588 223.774C314.484 219.769 311.881 216.064 311.681 215.463C311.681 215.463 320.091 113.639 212.46 97.4191C192.836 94.4154 172.11 97.6193 157.793 105.929C162.599 105.729 167.204 105.529 171.009 104.828C220.77 96.3177 305.073 126.054 301.969 203.148C301.869 205.651 269.129 153.387 217.466 143.676C159.495 132.762 132.462 149.182 132.462 149.182C132.462 149.182 170.809 144.276 211.959 152.486C259.117 161.898 295.161 198.843 313.884 234.787C312.582 237.39 297.163 236.089 293.258 231.383C281.144 216.565 249.004 177.817 207.153 167.805C121.949 147.781 96.2176 174.714 92.8134 173.212ZM252.409 211.659C237.59 212.86 228.179 184.325 201.747 175.915C233.285 177.917 240.094 203.248 252.409 211.659ZM184.726 174.914C210.457 176.215 239.993 220.77 253.31 223.974C234.286 225.576 204.951 182.022 184.726 174.914ZM208.955 224.575C225.876 259.918 241.195 233.485 255.312 260.218C243.097 250.206 212.96 270.23 208.955 224.575ZM306.675 309.679C290.755 286.951 260.819 291.156 264.824 266.826C270.631 283.146 298.865 267.227 306.675 309.679ZM290.455 272.633C225.976 245.7 277.539 226.076 255.212 204.85C287.251 230.482 247.202 248.504 290.455 272.633ZM327.3 276.338C321.793 247.202 270.631 266.125 277.94 227.678C286.751 262.221 332.707 225.075 327.3 276.338ZM350.829 213.661C349.728 231.783 345.422 249.004 338.013 265.224C335.21 254.01 330.104 242.597 322.494 230.782C323.896 224.575 324.797 218.167 325.198 211.759C329.102 145.378 277.339 88.2078 209.656 84.1028C185.026 82.601 160.997 88.3079 139.871 100.523C139.571 100.623 139.27 100.623 139.07 100.723L127.656 81.9001C153.488 65.48 183.324 57.7706 214.162 59.6729C294.26 64.4788 355.635 133.563 350.829 213.661Z" fill="#C4C4C4"/>
<path d="M214.562 52.0636C210.457 51.8634 206.452 51.7633 202.447 51.8634C202.247 51.8634 202.047 51.8634 201.747 51.8634C199.944 51.8634 198.042 51.9635 196.24 52.0636C195.839 52.0636 195.339 52.1637 194.938 52.1637C193.236 52.2639 191.434 52.364 189.732 52.5642C189.432 52.5642 189.131 52.6644 188.831 52.6644C185.827 52.9647 182.823 53.4653 179.82 53.9659C178.919 54.1662 178.018 54.2663 177.016 54.4666C175.915 54.6668 174.714 54.9672 173.612 55.1674C172.411 55.3677 171.309 55.668 170.108 55.9684C169.007 56.1686 168.005 56.469 166.904 56.7694C165.703 57.0697 164.501 57.4702 163.3 57.7706C162.298 58.071 161.297 58.3713 160.296 58.6717C158.994 59.0722 157.793 59.4727 156.591 59.8732C155.69 60.1735 154.689 60.4739 153.788 60.8744C152.386 61.375 150.985 61.8756 149.583 62.4764C147.681 63.2773 145.678 64.0783 143.776 64.8793C143.175 65.1797 142.474 65.3799 141.873 65.6803C140.372 66.3811 138.97 67.082 137.468 67.7828C137.068 67.9831 136.567 68.1833 136.166 68.4837C134.564 69.2847 132.963 70.1858 131.361 70.9868C131.16 71.0869 130.96 71.187 130.76 71.2871C127.256 73.2896 123.751 75.3921 120.347 77.5948C119.646 77.9953 119.146 78.6962 118.845 79.4972C118.445 80.5985 118.545 81.8 119.146 82.8012L132.162 104.127C111.837 122.149 95.3165 128.457 84.6034 135.265C83.7023 139.17 89.6095 150.184 106.33 142.274C91.1114 154.489 80.3983 171.309 80.4984 175.815C80.5985 179.419 81.8 180.421 91.5119 182.323C97.7194 183.524 105.829 184.526 109.033 189.832C115.741 200.946 120.948 203.749 126.555 202.548C127.656 202.347 129.058 201.446 129.959 200.645C138.67 194.137 144.176 200.645 148.782 204.75C152.887 208.355 153.087 209.356 158.394 211.458C165.302 214.062 175.414 209.556 183.224 211.859C184.125 212.159 185.126 212.159 185.126 210.057C185.126 209.456 185.026 209.056 183.324 208.154C168.506 204.35 155.49 190.433 141.673 189.031C135.365 188.43 132.362 191.434 127.556 193.236C124.452 194.438 117.944 195.739 116.843 189.432C116.743 181.422 123.751 176.716 129.258 176.616C142.074 176.416 153.588 175.815 161.397 174.613C161.397 174.613 166.704 173.812 167.004 173.612C176.015 172.911 194.237 186.528 201.847 197.341C213.861 214.462 233.786 232.384 249.705 231.984C232.284 236.789 215.964 230.982 203.248 210.858C202.948 210.357 202.447 209.957 201.847 209.456C205.151 216.264 206.152 225.175 205.051 238.892C204.951 242.597 205.651 244.599 208.555 248.704C224.575 270.631 208.755 287.752 208.655 287.852C194.137 302.37 164.501 308.177 161.197 309.178C136.667 316.687 137.368 300.968 136.567 300.067C135.966 299.366 134.564 299.366 134.364 300.067C133.663 302.069 133.363 306.975 133.864 308.377C134.965 311.681 135.666 313.583 141.173 316.387C146.279 318.89 155.49 318.69 159.495 318.389C169.908 317.488 182.623 316.387 194.938 312.983C205.852 309.979 212.46 308.677 201.346 324.897C192.235 335.11 172.11 344.621 160.496 351.83C168.005 354.133 175.715 355.735 183.624 356.936C218.567 341.317 221.17 284.948 228.379 273.334C231.683 268.028 245.8 268.228 252.409 270.23L252.108 272.733C248.904 291.156 255.713 296.663 252.308 306.375C241.195 338.013 228.98 350.528 212.66 358.438C222.272 357.938 231.783 356.636 240.894 354.433C245.2 348.426 250.606 339.615 253.61 333.708C259.918 321.293 264.223 307.976 265.424 294.16C270.03 296.763 274.536 299.566 278.941 302.67C283.246 312.983 281.744 327.801 277.339 340.616C279.742 339.315 282.746 337.613 285.149 336.111C285.95 335.61 286.65 335.21 287.451 334.709C290.155 327.6 291.957 319.991 291.957 312.682C292.958 313.483 293.959 314.284 294.961 315.085C298.164 317.588 301.368 319.891 304.773 321.994C311.281 316.487 317.288 310.279 322.795 303.771C299.466 295.762 325.798 275.537 289.254 266.926C327.2 269.73 314.885 286.951 327.2 298.265C331.906 292.057 336.311 285.449 340.016 278.44V278.34C350.729 258.616 356.836 237.19 358.138 214.562C363.444 129.859 298.865 57.1699 214.562 52.0636ZM92.8134 173.212C90.2103 172.01 92.7133 168.406 98.1199 160.997C137.969 106.43 244.098 136.567 250.907 135.466C255.913 134.665 183.124 97.1187 129.558 125.353C120.247 130.259 98.1199 139.37 96.7182 135.466C96.7182 135.466 122.65 122.45 133.964 112.237C134.665 111.636 135.466 111.036 136.267 110.635C137.969 109.334 139.671 108.032 141.473 106.73C161.798 94.4154 185.327 88.7084 209.256 90.1101C273.534 93.9148 322.795 148.381 319.09 211.358C318.89 215.563 318.289 219.669 317.588 223.774C314.484 219.769 311.881 216.064 311.681 215.463C311.681 215.463 320.091 113.639 212.46 97.4191C192.836 94.4154 172.11 97.6193 157.793 105.929C162.599 105.729 167.204 105.529 171.009 104.828C220.77 96.3177 305.073 126.054 301.969 203.148C301.869 205.651 269.129 153.387 217.466 143.676C159.495 132.762 132.462 149.182 132.462 149.182C132.462 149.182 170.809 144.276 211.959 152.486C259.117 161.898 295.161 198.843 313.884 234.787C312.582 237.39 297.163 236.089 293.258 231.383C281.144 216.565 249.004 177.817 207.153 167.805C121.949 147.781 96.2176 174.714 92.8134 173.212ZM252.409 211.659C237.59 212.86 228.179 184.325 201.747 175.915C233.285 177.917 240.094 203.248 252.409 211.659ZM184.726 174.914C210.457 176.215 239.993 220.77 253.31 223.974C234.286 225.576 204.951 182.022 184.726 174.914ZM208.955 224.575C225.876 259.918 241.195 233.485 255.312 260.218C243.097 250.206 212.96 270.23 208.955 224.575ZM306.675 309.679C290.755 286.951 260.819 291.156 264.824 266.826C270.631 283.146 298.865 267.227 306.675 309.679ZM290.455 272.633C225.976 245.7 277.539 226.076 255.212 204.85C287.251 230.482 247.202 248.504 290.455 272.633ZM327.3 276.338C321.793 247.202 270.631 266.125 277.94 227.678C286.751 262.221 332.707 225.075 327.3 276.338ZM350.829 213.661C349.728 231.783 345.422 249.004 338.013 265.224C335.21 254.01 330.104 242.597 322.494 230.782C323.896 224.575 324.797 218.167 325.198 211.759C329.102 145.378 277.339 88.2078 209.656 84.1028C185.026 82.601 160.997 88.3079 139.871 100.523C139.571 100.623 139.27 100.623 139.07 100.723L127.656 81.9001C153.488 65.48 183.324 57.7706 214.162 59.6729C294.26 64.4788 355.635 133.563 350.829 213.661Z" fill="#10099F"/>
</g>
<defs>
<clipPath id="clip0_1_199">
<rect width="410.4" height="408.5" fill="white" transform="scale(1.00122)"/>
</clipPath>
</defs>
</svg>
