<svg width="812" height="789" viewBox="0 0 812 789" fill="none" xmlns="http://www.w3.org/2000/svg">
<g clip-path="url(#clip0_1_140)">
<path d="M0.219482 489.232H30.9438V535.941H75.4941V489.232H106.438V610.06H75.4941V561.378H30.9438V609.841H0.219482V489.232Z" fill="#C4C4C4"/>
<path d="M0.219482 489.232H30.9438V535.941H75.4941V489.232H106.438V610.06H75.4941V561.378H30.9438V609.841H0.219482V489.232Z" fill="#10099F"/>
<path d="M129.92 609.841L190.052 487.478H191.588L251.72 609.841H219.679L211.12 591.421H170.52L162.18 609.841H129.92ZM202.342 570.808C198.172 561.159 193.344 549.318 190.93 541.862C189.174 545.809 182.81 562.913 179.298 570.808H202.342ZM180.615 482.215L190.271 461.164H217.265L199.708 482.215H180.615Z" fill="#C4C4C4"/>
<path d="M129.92 609.841L190.052 487.478H191.588L251.72 609.841H219.679L211.12 591.421H170.52L162.18 609.841H129.92ZM202.342 570.808C198.172 561.159 193.344 549.318 190.93 541.862C189.174 545.809 182.81 562.913 179.298 570.808H202.342ZM180.615 482.215L190.271 461.164H217.265L199.708 482.215H180.615Z" fill="#10099F"/>
<path d="M314.046 486.82C326.117 486.82 338.187 489.233 346.307 492.522V520.81C339.065 516.205 327.653 513.354 316.68 513.354C305.707 513.354 298.465 517.301 298.465 523.222C298.465 528.924 305.488 532.871 319.533 538.572C339.943 546.686 353.769 555.238 353.769 576.729C353.769 599.096 337.09 612.473 307.024 612.473C293.198 612.473 279.591 609.841 270.374 605.894V576.29C278.933 580.895 289.248 584.184 298.904 585.062C302.196 585.5 305.488 585.5 308.56 585.281C318.436 584.623 323.922 581.992 323.922 576.948C323.922 570.589 316.461 567.299 301.537 561.817C281.128 554.142 268.179 545.809 268.179 523.661C268.179 501.513 286.614 486.82 314.046 486.82Z" fill="#C4C4C4"/>
<path d="M314.046 486.82C326.117 486.82 338.187 489.233 346.307 492.522V520.81C339.065 516.205 327.653 513.354 316.68 513.354C305.707 513.354 298.465 517.301 298.465 523.222C298.465 528.924 305.488 532.871 319.533 538.572C339.943 546.686 353.769 555.238 353.769 576.729C353.769 599.096 337.09 612.473 307.024 612.473C293.198 612.473 279.591 609.841 270.374 605.894V576.29C278.933 580.895 289.248 584.184 298.904 585.062C302.196 585.5 305.488 585.5 308.56 585.281C318.436 584.623 323.922 581.992 323.922 576.948C323.922 570.589 316.461 567.299 301.537 561.817C281.128 554.142 268.179 545.809 268.179 523.661C268.179 501.513 286.614 486.82 314.046 486.82Z" fill="#10099F"/>
<path d="M385.59 489.232H416.315V542.3L458.012 489.232H493.784L451.867 540.765L494.442 610.061H460.426L431.018 560.282L416.315 577.825V610.28H385.59V489.232Z" fill="#C4C4C4"/>
<path d="M385.59 489.232H416.315V542.3L458.012 489.232H493.784L451.867 540.765L494.442 610.061H460.426L431.018 560.282L416.315 577.825V610.28H385.59V489.232Z" fill="#10099F"/>
<path d="M507.61 549.537C507.61 514.889 534.384 486.82 571.472 486.82C608.561 486.82 635.335 514.889 635.335 549.537C635.335 584.623 608.78 612.253 571.472 612.253C534.164 612.253 507.61 584.623 507.61 549.537ZM571.472 584.184C591.004 584.184 604.391 568.176 604.391 549.537C604.391 530.897 591.224 514.889 571.472 514.889C551.721 514.889 538.334 530.897 538.334 549.537C538.334 568.396 551.94 584.184 571.472 584.184ZM561.158 482.215L570.814 461.164H597.807L580.251 482.215H561.158Z" fill="#C4C4C4"/>
<path d="M507.61 549.537C507.61 514.889 534.384 486.82 571.472 486.82C608.561 486.82 635.335 514.889 635.335 549.537C635.335 584.623 608.78 612.253 571.472 612.253C534.164 612.253 507.61 584.623 507.61 549.537ZM571.472 584.184C591.004 584.184 604.391 568.176 604.391 549.537C604.391 530.897 591.224 514.889 571.472 514.889C551.721 514.889 538.334 530.897 538.334 549.537C538.334 568.396 551.94 584.184 571.472 584.184ZM561.158 482.215L570.814 461.164H597.807L580.251 482.215H561.158Z" fill="#10099F"/>
<path d="M665.401 609.841V489.013H696.125V583.965H739.798V609.841H665.401Z" fill="#C4C4C4"/>
<path d="M665.401 609.841V489.013H696.125V583.965H739.798V609.841H665.401Z" fill="#10099F"/>
<path d="M770.961 609.841V489.013H801.685V609.841H770.961Z" fill="#C4C4C4"/>
<path d="M770.961 609.841V489.013H801.685V609.841H770.961Z" fill="#10099F"/>
<path d="M0 786.588V665.76H30.7243V786.588H0ZM12.0703 637.91H39.0638L21.507 658.962H2.41405L12.0703 637.91Z" fill="#C4C4C4"/>
<path d="M0 786.588V665.76H30.7243V786.588H0ZM12.0703 637.91H39.0638L21.507 658.962H2.41405L12.0703 637.91Z" fill="#10099F"/>
<path d="M116.972 663.567C129.042 663.567 141.113 665.979 149.233 669.268V697.557C141.99 692.952 130.578 690.101 119.606 690.101C108.633 690.101 101.39 694.048 101.39 699.969C101.39 705.67 108.413 709.618 122.458 715.319C142.868 723.433 156.694 731.985 156.694 753.475C156.694 775.843 140.015 789.219 109.949 789.219C96.1234 789.219 82.5169 786.588 73.2996 782.641V753.037C81.8585 757.642 92.1731 760.931 101.829 761.808C105.121 762.247 108.413 762.247 111.486 762.028C121.361 761.37 126.848 758.738 126.848 753.695C126.848 747.335 119.386 744.046 104.463 738.564C84.0531 730.888 71.105 722.556 71.105 700.407C71.105 678.04 89.5396 663.567 116.972 663.567Z" fill="#C4C4C4"/>
<path d="M116.972 663.567C129.042 663.567 141.113 665.979 149.233 669.268V697.557C141.99 692.952 130.578 690.101 119.606 690.101C108.633 690.101 101.39 694.048 101.39 699.969C101.39 705.67 108.413 709.618 122.458 715.319C142.868 723.433 156.694 731.985 156.694 753.475C156.694 775.843 140.015 789.219 109.949 789.219C96.1234 789.219 82.5169 786.588 73.2996 782.641V753.037C81.8585 757.642 92.1731 760.931 101.829 761.808C105.121 762.247 108.413 762.247 111.486 762.028C121.361 761.37 126.848 758.738 126.848 753.695C126.848 747.335 119.386 744.046 104.463 738.564C84.0531 730.888 71.105 722.556 71.105 700.407C71.105 678.04 89.5396 663.567 116.972 663.567Z" fill="#10099F"/>
<path d="M192.686 786.588V665.76H223.41V760.931H267.082V786.807H192.686V786.588Z" fill="#C4C4C4"/>
<path d="M192.686 786.588V665.76H223.41V760.931H267.082V786.807H192.686V786.588Z" fill="#10099F"/>
<path d="M288.37 786.588L348.502 664.225H350.038L410.17 786.588H378.129L369.57 768.167H328.97L320.63 786.588H288.37ZM360.791 747.554C356.622 737.906 351.793 726.064 349.379 718.608C347.624 722.555 341.259 739.66 337.748 747.554H360.791Z" fill="#C4C4C4"/>
<path d="M288.37 786.588L348.502 664.225H350.038L410.17 786.588H378.129L369.57 768.167H328.97L320.63 786.588H288.37ZM360.791 747.554C356.622 737.906 351.793 726.064 349.379 718.608C347.624 722.555 341.259 739.66 337.748 747.554H360.791Z" fill="#10099F"/>
<path d="M438.699 664.225L500.148 718.608C503.44 721.24 506.732 724.31 510.024 726.722V665.76H540.309V788.123H539.212L477.324 733.52L467.668 725.406V786.368H437.602V664.005H438.699V664.225Z" fill="#C4C4C4"/>
<path d="M438.699 664.225L500.148 718.608C503.44 721.24 506.732 724.31 510.024 726.722V665.76H540.309V788.123H539.212L477.324 733.52L467.668 725.406V786.368H437.602V664.005H438.699V664.225Z" fill="#10099F"/>
<path d="M586.834 786.588V665.76H627.215C669.571 665.76 695.687 691.197 695.687 726.064C695.687 761.15 669.571 786.369 627.435 786.369H586.834V786.588ZM627.215 760.931C651.795 760.931 664.743 745.142 664.743 726.283C664.743 707.425 651.575 691.636 626.996 691.636H617.559V760.931H627.215Z" fill="#C4C4C4"/>
<path d="M586.834 786.588V665.76H627.215C669.571 665.76 695.687 691.197 695.687 726.064C695.687 761.15 669.571 786.369 627.435 786.369H586.834V786.588ZM627.215 760.931C651.795 760.931 664.743 745.142 664.743 726.283C664.743 707.425 651.575 691.636 626.996 691.636H617.559V760.931H627.215Z" fill="#10099F"/>
<path d="M772.278 663.567C784.348 663.567 796.418 665.979 804.538 669.268V697.557C797.296 692.952 785.884 690.101 774.911 690.101C763.938 690.101 756.696 694.048 756.696 699.969C756.696 705.67 763.719 709.618 777.764 715.319C798.174 723.433 812 731.985 812 753.475C812 775.843 795.321 789.219 765.255 789.219C751.429 789.219 737.823 786.588 728.605 782.641V753.037C737.164 757.642 747.479 760.931 757.135 761.808C760.427 762.247 763.719 762.247 766.791 762.028C776.667 761.37 782.154 758.738 782.154 753.695C782.154 747.335 774.692 744.046 759.769 738.564C739.359 730.888 726.411 722.556 726.411 700.407C726.411 678.04 744.626 663.567 772.278 663.567Z" fill="#C4C4C4"/>
<path d="M772.278 663.567C784.348 663.567 796.418 665.979 804.538 669.268V697.557C797.296 692.952 785.884 690.101 774.911 690.101C763.938 690.101 756.696 694.048 756.696 699.969C756.696 705.67 763.719 709.618 777.764 715.319C798.174 723.433 812 731.985 812 753.475C812 775.843 795.321 789.219 765.255 789.219C751.429 789.219 737.823 786.588 728.605 782.641V753.037C737.164 757.642 747.479 760.931 757.135 761.808C760.427 762.247 763.719 762.247 766.791 762.028C776.667 761.37 782.154 758.738 782.154 753.695C782.154 747.335 774.692 744.046 759.769 738.564C739.359 730.888 726.411 722.556 726.411 700.407C726.411 678.04 744.626 663.567 772.278 663.567Z" fill="#10099F"/>
<path d="M366.717 398.228C363.864 397.789 361.011 396.693 359.255 395.596L360.352 388.798C361.889 390.114 364.522 391.43 367.156 391.868C369.789 392.307 371.545 391.649 371.764 390.333C371.984 389.018 370.448 387.702 367.375 385.948C362.986 383.316 359.913 380.685 360.791 375.641C361.669 370.378 366.278 367.966 373.301 369.063C376.592 369.72 379.665 370.817 381.64 372.133L380.543 379.15C378.787 377.834 376.373 376.518 374.178 375.86C373.301 375.641 372.642 375.422 371.984 375.422C369.57 375.203 368.253 375.641 368.034 376.738C367.814 378.273 369.35 379.369 372.642 381.123C377.031 383.755 379.884 386.386 379.006 391.43C378.129 396.474 373.301 399.324 366.717 398.228Z" fill="#C4C4C4"/>
<path d="M366.717 398.228C363.864 397.789 361.011 396.693 359.255 395.596L360.352 388.798C361.889 390.114 364.522 391.43 367.156 391.868C369.789 392.307 371.545 391.649 371.764 390.333C371.984 389.018 370.448 387.702 367.375 385.948C362.986 383.316 359.913 380.685 360.791 375.641C361.669 370.378 366.278 367.966 373.301 369.063C376.592 369.72 379.665 370.817 381.64 372.133L380.543 379.15C378.787 377.834 376.373 376.518 374.178 375.86C373.301 375.641 372.642 375.422 371.984 375.422C369.57 375.203 368.253 375.641 368.034 376.738C367.814 378.273 369.35 379.369 372.642 381.123C377.031 383.755 379.884 386.386 379.006 391.43C378.129 396.474 373.301 399.324 366.717 398.228Z" fill="#10099F"/>
<path d="M348.502 363.361L338.845 390.553L331.823 388.14L341.479 360.949L348.502 363.361Z" fill="#C4C4C4"/>
<path d="M348.502 363.361L338.845 390.553L331.823 388.14L341.479 360.949L348.502 363.361Z" fill="#10099F"/>
<path d="M300.001 373.448C296.27 371.256 294.076 368.843 292.979 367.089L296.27 361.168C297.368 362.923 299.343 365.115 302.854 367.089C307.682 369.94 312.291 368.185 314.486 364.238C316.68 360.291 316.022 355.467 311.413 352.835C310.535 352.397 309.438 351.958 308.56 351.739L305.049 357.879L298.904 354.37L304.829 344.064C307.902 344.283 311.633 345.379 314.705 347.134C322.825 351.739 325.02 360.73 320.85 367.966C316.68 375.422 307.682 377.834 300.001 373.448Z" fill="#C4C4C4"/>
<path d="M300.001 373.448C296.27 371.256 294.076 368.843 292.979 367.089L296.27 361.168C297.368 362.923 299.343 365.115 302.854 367.089C307.682 369.94 312.291 368.185 314.486 364.238C316.68 360.291 316.022 355.467 311.413 352.835C310.535 352.397 309.438 351.958 308.56 351.739L305.049 357.879L298.904 354.37L304.829 344.064C307.902 344.283 311.633 345.379 314.705 347.134C322.825 351.739 325.02 360.73 320.85 367.966C316.68 375.422 307.682 377.834 300.001 373.448Z" fill="#10099F"/>
<path d="M293.856 333.318L274.983 355.467L269.277 350.642L288.15 328.494L293.856 333.318Z" fill="#C4C4C4"/>
<path d="M293.856 333.318L274.983 355.467L269.277 350.642L288.15 328.494L293.856 333.318Z" fill="#10099F"/>
<path d="M276.519 317.31L254.354 336.169L249.525 330.468L266.863 315.775L260.059 307.881L264.888 303.934L276.519 317.31Z" fill="#C4C4C4"/>
<path d="M276.519 317.31L254.354 336.169L249.525 330.468L266.863 315.775L260.059 307.881L264.888 303.934L276.519 317.31Z" fill="#10099F"/>
<path d="M256.987 292.092L231.749 306.346L228.019 299.987L247.77 288.803L242.503 279.812L247.989 276.742L256.987 292.092Z" fill="#C4C4C4"/>
<path d="M256.987 292.092L231.749 306.346L228.019 299.987L247.77 288.803L242.503 279.812L247.989 276.742L256.987 292.092Z" fill="#10099F"/>
<path d="M214.851 273.014L212.656 265.997L229.335 260.734C232.627 259.637 233.944 257.445 232.847 254.155C231.749 250.866 229.335 249.769 226.043 250.866L209.365 256.129L207.17 249.112L224.507 243.629C231.091 241.656 236.797 244.726 238.992 252.182C241.406 259.637 238.553 265.558 231.969 267.532L214.851 273.014Z" fill="#C4C4C4"/>
<path d="M214.851 273.014L212.656 265.997L229.335 260.734C232.627 259.637 233.944 257.445 232.847 254.155C231.749 250.866 229.335 249.769 226.043 250.866L209.365 256.129L207.17 249.112L224.507 243.629C231.091 241.656 236.797 244.726 238.992 252.182C241.406 259.637 238.553 265.558 231.969 267.532L214.851 273.014Z" fill="#10099F"/>
<path d="M202.561 226.744L214.631 211.833L201.025 198.456V198.237L230.432 196.482L230.871 203.5L216.168 204.377L217.923 206.131C219.679 207.885 221.654 209.42 223.41 211.175C221.874 213.148 220.118 214.903 218.582 216.876L217.045 218.85L231.749 217.973L232.188 224.99L202.561 226.744Z" fill="#C4C4C4"/>
<path d="M202.561 226.744L214.631 211.833L201.025 198.456V198.237L230.432 196.482L230.871 203.5L216.168 204.377L217.923 206.131C219.679 207.885 221.654 209.42 223.41 211.175C221.874 213.148 220.118 214.903 218.582 216.876L217.045 218.85L231.749 217.973L232.188 224.99L202.561 226.744Z" fill="#10099F"/>
<path d="M207.609 150.651L209.803 143.634L226.263 149.116C229.555 150.213 231.969 149.116 233.066 145.827C234.163 142.538 232.846 140.345 229.555 139.248L213.315 133.766L215.509 126.749L232.846 132.45C239.211 134.643 242.064 140.345 239.65 147.8C237.236 155.256 231.53 158.326 224.946 156.353L207.609 150.651Z" fill="#C4C4C4"/>
<path d="M207.609 150.651L209.803 143.634L226.263 149.116C229.555 150.213 231.969 149.116 233.066 145.827C234.163 142.538 232.846 140.345 229.555 139.248L213.315 133.766L215.509 126.749L232.846 132.45C239.211 134.643 242.064 140.345 239.65 147.8C237.236 155.256 231.53 158.326 224.946 156.353L207.609 150.651Z" fill="#10099F"/>
<path d="M224.727 105.697L243.6 99.9956C244.478 99.557 245.575 99.3377 246.453 99.1184L233.944 91.4433L237.675 85.3032L262.693 100.653L262.474 100.873L243.6 106.574L240.747 107.451L253.256 115.126L249.525 121.267L224.507 105.916L224.727 105.697Z" fill="#C4C4C4"/>
<path d="M224.727 105.697L243.6 99.9956C244.478 99.557 245.575 99.3377 246.453 99.1184L233.944 91.4433L237.675 85.3032L262.693 100.653L262.474 100.873L243.6 106.574L240.747 107.451L253.256 115.126L249.525 121.267L224.507 105.916L224.727 105.697Z" fill="#10099F"/>
<path d="M273.008 88.1539L251.501 68.6372L256.548 63.155L278.055 82.6717L273.008 88.1539Z" fill="#C4C4C4"/>
<path d="M273.008 88.1539L251.501 68.6372L256.548 63.155L278.055 82.6717L273.008 88.1539Z" fill="#10099F"/>
<path d="M275.422 45.3926L283.103 49.5591C285.736 50.8748 288.15 52.4098 290.125 53.5063C289.906 52.4098 288.589 47.8048 288.15 45.8312L286.175 37.2789L292.54 32.4546L298.684 64.69L298.465 64.9093L269.057 50.4362L275.422 45.3926Z" fill="#C4C4C4"/>
<path d="M275.422 45.3926L283.103 49.5591C285.736 50.8748 288.15 52.4098 290.125 53.5063C289.906 52.4098 288.589 47.8048 288.15 45.8312L286.175 37.2789L292.54 32.4546L298.684 64.69L298.465 64.9093L269.057 50.4362L275.422 45.3926Z" fill="#10099F"/>
<path d="M308.999 23.0253L326.117 14.9116L328.75 20.6131L318.216 25.4375L320.411 30.0425L329.409 25.876L331.823 31.139L322.825 35.3055L325.239 40.3491L336.212 35.0862L338.845 40.7877L321.069 49.1206L308.999 23.0253Z" fill="#C4C4C4"/>
<path d="M308.999 23.0253L326.117 14.9116L328.75 20.6131L318.216 25.4375L320.411 30.0425L329.409 25.876L331.823 31.139L322.825 35.3055L325.239 40.3491L336.212 35.0862L338.845 40.7877L321.069 49.1206L308.999 23.0253Z" fill="#10099F"/>
<path d="M352.671 36.4019L346.088 8.11367L356.402 5.70149C363.205 4.16647 368.473 6.35936 370.009 12.7187C370.887 16.8852 369.57 19.9552 366.717 22.1481L374.837 31.3582L367.375 33.1126L360.572 24.9989L357.5 25.6567L359.694 34.8669L352.671 36.4019ZM356.183 19.736L359.694 18.8588C361.889 18.4202 363.205 16.8852 362.547 14.473C361.889 12.0609 360.133 11.403 357.938 11.8416L354.427 12.7187L356.183 19.736Z" fill="#C4C4C4"/>
<path d="M352.671 36.4019L346.088 8.11367L356.402 5.70149C363.205 4.16647 368.473 6.35936 370.009 12.7187C370.887 16.8852 369.57 19.9552 366.717 22.1481L374.837 31.3582L367.375 33.1126L360.572 24.9989L357.5 25.6567L359.694 34.8669L352.671 36.4019ZM356.183 19.736L359.694 18.8588C361.889 18.4202 363.205 16.8852 362.547 14.473C361.889 12.0609 360.133 11.403 357.938 11.8416L354.427 12.7187L356.183 19.736Z" fill="#10099F"/>
<path d="M397.88 0C400.733 0 403.586 0.438577 405.561 1.09644L405.781 7.89439C404.025 6.79794 401.172 6.14008 398.538 6.35937C395.905 6.57865 394.149 7.45581 394.149 8.77154C394.149 10.0873 395.905 10.9644 399.197 12.2802C404.025 14.0345 407.536 16.0081 407.536 21.271C407.756 26.5339 403.805 29.8232 396.563 30.0425C393.271 30.0425 389.979 29.6039 387.785 28.7268L387.565 21.7096C389.541 22.806 392.174 23.4639 394.369 23.6832C395.246 23.6832 395.905 23.6832 396.563 23.6832C398.977 23.4639 400.294 22.806 400.294 21.4903C400.294 19.9553 398.319 19.2974 394.808 17.9817C389.979 16.2273 386.688 14.2538 386.688 8.99083C386.907 3.7279 391.296 0.219288 397.88 0Z" fill="#C4C4C4"/>
<path d="M397.88 0C400.733 0 403.586 0.438577 405.561 1.09644L405.781 7.89439C404.025 6.79794 401.172 6.14008 398.538 6.35937C395.905 6.57865 394.149 7.45581 394.149 8.77154C394.149 10.0873 395.905 10.9644 399.197 12.2802C404.025 14.0345 407.536 16.0081 407.536 21.271C407.756 26.5339 403.805 29.8232 396.563 30.0425C393.271 30.0425 389.979 29.6039 387.785 28.7268L387.565 21.7096C389.541 22.806 392.174 23.4639 394.369 23.6832C395.246 23.6832 395.905 23.6832 396.563 23.6832C398.977 23.4639 400.294 22.806 400.294 21.4903C400.294 19.9553 398.319 19.2974 394.808 17.9817C389.979 16.2273 386.688 14.2538 386.688 8.99083C386.907 3.7279 391.296 0.219288 397.88 0Z" fill="#10099F"/>
<path d="M422.459 30.7004L426.41 1.97363L433.652 3.07008L429.702 31.7969L422.459 30.7004Z" fill="#C4C4C4"/>
<path d="M422.459 30.7004L426.41 1.97363L433.652 3.07008L429.702 31.7969L422.459 30.7004Z" fill="#10099F"/>
<path d="M452.306 6.57861L474.032 13.5958L472.057 19.5166L464.596 17.1045L457.573 38.814L450.55 36.6211L457.573 14.9116L450.111 12.4994L452.306 6.57861Z" fill="#C4C4C4"/>
<path d="M452.306 6.57861L474.032 13.5958L472.057 19.5166L464.596 17.1045L457.573 38.814L450.55 36.6211L457.573 14.9116L450.111 12.4994L452.306 6.57861Z" fill="#10099F"/>
<path d="M474.91 44.9541L502.123 26.7532L502.343 26.9725L500.148 59.6464L493.564 55.6993L494.003 50.8749L485.664 46.0506L481.714 48.9013L474.91 44.9541ZM494.662 45.612C494.881 43.1998 495.32 40.1298 495.759 38.1562C494.881 38.814 491.589 41.6648 489.834 42.7612L494.662 45.612Z" fill="#C4C4C4"/>
<path d="M474.91 44.9541L502.123 26.7532L502.343 26.9725L500.148 59.6464L493.564 55.6993L494.003 50.8749L485.664 46.0506L481.714 48.9013L474.91 44.9541ZM494.662 45.612C494.881 43.1998 495.32 40.1298 495.759 38.1562C494.881 38.814 491.589 41.6648 489.834 42.7612L494.662 45.612Z" fill="#10099F"/>
<path d="M528.02 44.5156L544.918 59.8658L540.748 64.4709L535.042 59.208L519.68 76.0932L514.194 71.0495L529.556 54.1643L523.85 48.9014L528.02 44.5156Z" fill="#C4C4C4"/>
<path d="M528.02 44.5156L544.918 59.8658L540.748 64.4709L535.042 59.208L519.68 76.0932L514.194 71.0495L529.556 54.1643L523.85 48.9014L528.02 44.5156Z" fill="#10099F"/>
<path d="M534.384 91.8818L557.208 73.9001L561.816 79.6016L538.992 97.5833L534.384 91.8818Z" fill="#C4C4C4"/>
<path d="M534.384 91.8818L557.208 73.9001L561.816 79.6016L538.992 97.5833L534.384 91.8818Z" fill="#10099F"/>
<path d="M578.715 105.258C580.031 107.89 580.909 110.521 581.129 112.714L575.203 116.004C575.423 114.03 574.545 111.179 573.447 108.986C572.131 106.574 570.594 105.697 569.278 106.355C568.18 107.013 568.18 108.986 568.4 112.495C569.058 117.758 568.839 121.705 564.23 124.117C559.622 126.749 554.793 124.775 551.282 118.416C549.746 115.565 548.649 112.276 548.429 110.083L554.574 106.793C554.574 109.206 555.013 111.618 556.11 113.811C556.33 114.469 556.769 115.126 557.207 115.784C558.524 117.758 559.622 118.635 560.719 117.977C562.036 117.319 561.816 115.346 561.377 111.618C560.719 106.355 560.938 102.846 565.547 100.215C570.375 97.3641 575.642 99.5569 578.715 105.258Z" fill="#C4C4C4"/>
<path d="M578.715 105.258C580.031 107.89 580.909 110.521 581.129 112.714L575.203 116.004C575.423 114.03 574.545 111.179 573.447 108.986C572.131 106.574 570.594 105.697 569.278 106.355C568.18 107.013 568.18 108.986 568.4 112.495C569.058 117.758 568.839 121.705 564.23 124.117C559.622 126.749 554.793 124.775 551.282 118.416C549.746 115.565 548.649 112.276 548.429 110.083L554.574 106.793C554.574 109.206 555.013 111.618 556.11 113.811C556.33 114.469 556.769 115.126 557.207 115.784C558.524 117.758 559.622 118.635 560.719 117.977C562.036 117.319 561.816 115.346 561.377 111.618C560.719 106.355 560.938 102.846 565.547 100.215C570.375 97.3641 575.642 99.5569 578.715 105.258Z" fill="#10099F"/>
<path d="M569.058 162.274L597.369 156.353L598.905 163.589L570.595 169.291L569.058 162.274Z" fill="#C4C4C4"/>
<path d="M569.058 162.274L597.369 156.353L598.905 163.589L570.595 169.291L569.058 162.274Z" fill="#10099F"/>
<path d="M602.636 193.851C602.636 196.702 602.197 199.552 601.538 201.526L594.735 201.745C595.832 199.991 596.271 197.14 596.271 194.509C596.271 191.877 595.174 190.123 593.638 190.342C592.321 190.342 591.443 192.097 590.126 195.605C588.371 200.43 586.396 203.938 581.348 204.157C576.081 204.377 572.57 200.43 572.35 193.193C572.131 189.904 572.789 186.614 573.667 184.422L580.69 184.202C579.592 186.395 578.934 188.807 578.934 191.219C578.934 192.097 578.934 192.754 578.934 193.412C579.153 195.824 579.812 197.14 581.129 197.14C582.665 197.14 583.323 195.167 584.64 191.658C586.396 186.834 588.151 183.544 593.418 183.325C598.905 182.887 602.416 187.272 602.636 193.851Z" fill="#C4C4C4"/>
<path d="M602.636 193.851C602.636 196.702 602.197 199.552 601.538 201.526L594.735 201.745C595.832 199.991 596.271 197.14 596.271 194.509C596.271 191.877 595.174 190.123 593.638 190.342C592.321 190.342 591.443 192.097 590.126 195.605C588.371 200.43 586.396 203.938 581.348 204.157C576.081 204.377 572.57 200.43 572.35 193.193C572.131 189.904 572.789 186.614 573.667 184.422L580.69 184.202C579.592 186.395 578.934 188.807 578.934 191.219C578.934 192.097 578.934 192.754 578.934 193.412C579.153 195.824 579.812 197.14 581.129 197.14C582.665 197.14 583.323 195.167 584.64 191.658C586.396 186.834 588.151 183.544 593.418 183.325C598.905 182.887 602.416 187.272 602.636 193.851Z" fill="#10099F"/>
<path d="M572.57 218.631L601.319 223.016L600.222 230.253L577.617 226.744L576.081 237.051L569.936 236.174L572.57 218.631Z" fill="#C4C4C4"/>
<path d="M572.57 218.631L601.319 223.016L600.222 230.253L577.617 226.744L576.081 237.051L569.936 236.174L572.57 218.631Z" fill="#10099F"/>
<path d="M567.522 246.919L589.907 270.602L589.688 271.041L557.427 274.111L560.061 266.874L564.889 266.436L568.4 257.226L564.889 253.717L567.522 246.919ZM570.375 266.436C572.789 266.216 575.862 266.216 577.837 266.216C577.178 265.558 573.887 262.488 572.35 261.173L570.375 266.436Z" fill="#C4C4C4"/>
<path d="M567.522 246.919L589.907 270.602L589.688 271.041L557.427 274.111L560.061 266.874L564.889 266.436L568.4 257.226L564.889 253.717L567.522 246.919ZM570.375 266.436C572.789 266.216 575.862 266.216 577.837 266.216C577.178 265.558 573.887 262.488 572.35 261.173L570.375 266.436Z" fill="#10099F"/>
<path d="M575.423 301.96L556.33 307.004C555.452 307.223 554.355 307.443 553.477 307.881L565.547 315.995L561.597 321.916L537.237 305.688L537.456 305.469L556.549 300.425L559.402 299.548L547.332 291.434L551.282 285.514L575.642 301.741L575.423 301.96Z" fill="#C4C4C4"/>
<path d="M575.423 301.96L556.33 307.004C555.452 307.223 554.355 307.443 553.477 307.881L565.547 315.995L561.597 321.916L537.237 305.688L537.456 305.469L556.549 300.425L559.402 299.548L547.332 291.434L551.282 285.514L575.642 301.741L575.423 301.96Z" fill="#10099F"/>
<path d="M527.142 317.968L546.893 339.239L539.87 345.818C532.409 352.616 523.63 352.397 517.924 346.256C512.219 340.116 512.657 331.345 520.119 324.547L527.142 317.968ZM524.289 329.152C519.9 333.099 520.338 338.143 523.191 341.432C526.264 344.721 531.092 345.379 535.481 341.432L537.237 339.897L526.044 327.617L524.289 329.152Z" fill="#C4C4C4"/>
<path d="M527.142 317.968L546.893 339.239L539.87 345.818C532.409 352.616 523.63 352.397 517.924 346.256C512.219 340.116 512.657 331.345 520.119 324.547L527.142 317.968ZM524.289 329.152C519.9 333.099 520.338 338.143 523.191 341.432C526.264 344.721 531.092 345.379 535.481 341.432L537.237 339.897L526.044 327.617L524.289 329.152Z" fill="#10099F"/>
<path d="M495.978 343.844L511.341 368.405L505.196 372.352L489.833 347.791L495.978 343.844Z" fill="#C4C4C4"/>
<path d="M495.978 343.844L511.341 368.405L505.196 372.352L489.833 347.791L495.978 343.844Z" fill="#10099F"/>
<path d="M478.422 354.37L475.788 387.044L475.349 387.263L451.209 365.335L458.451 362.484L461.962 365.773L470.96 362.264L471.18 357.44L478.422 354.37ZM465.913 369.501C467.668 371.255 469.863 373.448 470.96 374.983C470.96 373.887 470.96 369.501 470.96 367.527L465.913 369.501Z" fill="#C4C4C4"/>
<path d="M478.422 354.37L475.788 387.044L475.349 387.263L451.209 365.335L458.451 362.484L461.962 365.773L470.96 362.264L471.18 357.44L478.422 354.37ZM465.913 369.501C467.668 371.255 469.863 373.448 470.96 374.983C470.96 373.887 470.96 369.501 470.96 367.527L465.913 369.501Z" fill="#10099F"/>
<path d="M443.308 396.693L424.654 399.763L423.557 393.623L434.969 391.649L434.091 386.606L424.215 388.141L423.337 382.439L433.213 380.904L432.335 375.422L420.265 377.395L419.168 371.255L438.48 368.185L443.308 396.693Z" fill="#C4C4C4"/>
<path d="M443.308 396.693L424.654 399.763L423.557 393.623L434.969 391.649L434.091 386.606L424.215 388.141L423.337 382.439L433.213 380.904L432.335 375.422L420.265 377.395L419.168 371.255L438.48 368.185L443.308 396.693Z" fill="#10099F"/>
<path d="M322.605 260.953C325.239 260.734 323.483 253.936 325.897 252.62C328.531 251.085 333.359 249.769 334.676 254.155C337.09 253.936 340.601 252.62 341.479 251.743C348.501 243.629 339.943 237.27 338.845 236.393C336.87 235.296 331.603 233.542 330.506 236.174C331.164 237.489 333.139 236.612 334.676 237.27C336.212 237.928 337.748 239.024 338.406 240.121C339.284 241.656 339.065 244.068 336.87 244.287C335.553 244.507 332.481 242.533 329.409 242.533C323.483 242.314 313.607 246.042 311.632 240.998C310.316 237.489 316.241 219.069 319.094 211.613C319.533 210.517 321.069 207.227 319.752 207.008C319.752 207.008 319.094 206.789 318.874 207.227C317.338 210.955 307.243 237.27 306.365 241.656C305.487 245.384 305.707 248.454 307.463 250.427C309.218 252.401 311.413 252.401 314.046 252.182C318.436 251.962 320.63 252.62 321.727 256.129C321.947 257.664 321.947 258.98 322.605 260.953Z" fill="#C4C4C4"/>
<path d="M322.605 260.953C325.239 260.734 323.483 253.936 325.897 252.62C328.531 251.085 333.359 249.769 334.676 254.155C337.09 253.936 340.601 252.62 341.479 251.743C348.501 243.629 339.943 237.27 338.845 236.393C336.87 235.296 331.603 233.542 330.506 236.174C331.164 237.489 333.139 236.612 334.676 237.27C336.212 237.928 337.748 239.024 338.406 240.121C339.284 241.656 339.065 244.068 336.87 244.287C335.553 244.507 332.481 242.533 329.409 242.533C323.483 242.314 313.607 246.042 311.632 240.998C310.316 237.489 316.241 219.069 319.094 211.613C319.533 210.517 321.069 207.227 319.752 207.008C319.752 207.008 319.094 206.789 318.874 207.227C317.338 210.955 307.243 237.27 306.365 241.656C305.487 245.384 305.707 248.454 307.463 250.427C309.218 252.401 311.413 252.401 314.046 252.182C318.436 251.962 320.63 252.62 321.727 256.129C321.947 257.664 321.947 258.98 322.605 260.953Z" fill="#10099F"/>
<path d="M335.115 287.268C337.748 284.417 344.99 282.882 346.746 277.838C346.965 277.4 346.746 275.426 346.088 275.426C344.771 275.207 344.771 276.523 343.674 276.961C341.259 277.838 338.626 276.961 335.773 276.961C331.384 276.961 326.775 277.619 326.556 280.909C329.409 283.54 332.92 283.759 333.578 289.899C334.676 289.68 334.676 288.364 335.115 287.268Z" fill="#C4C4C4"/>
<path d="M335.115 287.268C337.748 284.417 344.99 282.882 346.746 277.838C346.965 277.4 346.746 275.426 346.088 275.426C344.771 275.207 344.771 276.523 343.674 276.961C341.259 277.838 338.626 276.961 335.773 276.961C331.384 276.961 326.775 277.619 326.556 280.909C329.409 283.54 332.92 283.759 333.578 289.899C334.676 289.68 334.676 288.364 335.115 287.268Z" fill="#10099F"/>
<path d="M334.237 212.271C332.042 215.78 337.529 217.534 339.723 218.411C343.454 219.946 348.063 217.753 350.477 214.683C350.916 214.026 351.793 212.271 352.013 211.394C352.452 210.298 352.452 209.859 351.574 209.42C350.916 209.201 350.038 208.543 348.721 208.105C344.99 210.517 339.943 215.122 334.237 212.271Z" fill="#C4C4C4"/>
<path d="M334.237 212.271C332.042 215.78 337.529 217.534 339.723 218.411C343.454 219.946 348.063 217.753 350.477 214.683C350.916 214.026 351.793 212.271 352.013 211.394C352.452 210.298 352.452 209.859 351.574 209.42C350.916 209.201 350.038 208.543 348.721 208.105C344.99 210.517 339.943 215.122 334.237 212.271Z" fill="#10099F"/>
<path d="M335.554 271.04C338.407 271.04 340.821 272.575 343.454 272.575C345.429 272.575 350.038 271.918 350.916 267.532C344.771 267.532 340.821 266.655 336.212 264.681C334.237 263.804 332.262 261.83 330.287 262.269C327.873 262.927 325.02 265.777 320.63 265.777C321.069 268.409 323.044 271.479 326.117 272.137C329.409 273.014 332.481 271.04 335.554 271.04Z" fill="#C4C4C4"/>
<path d="M335.554 271.04C338.407 271.04 340.821 272.575 343.454 272.575C345.429 272.575 350.038 271.918 350.916 267.532C344.771 267.532 340.821 266.655 336.212 264.681C334.237 263.804 332.262 261.83 330.287 262.269C327.873 262.927 325.02 265.777 320.63 265.777C321.069 268.409 323.044 271.479 326.117 272.137C329.409 273.014 332.481 271.04 335.554 271.04Z" fill="#10099F"/>
<path d="M327.653 198.895C327.653 199.333 328.092 199.991 328.311 200.43C331.384 199.333 334.895 200.649 334.456 204.596C334.456 205.473 334.017 206.131 333.139 206.35C333.798 208.105 333.578 208.324 335.114 209.42C334.895 208.982 334.895 208.763 335.114 207.885C336.651 207.008 338.406 206.35 338.845 203.938C341.698 205.693 340.601 208.763 340.162 209.64C343.234 208.982 345.429 207.885 346.965 206.57C343.234 205.035 340.162 199.114 335.334 198.017C332.92 197.579 329.628 197.579 327.653 198.895Z" fill="#C4C4C4"/>
<path d="M327.653 198.895C327.653 199.333 328.092 199.991 328.311 200.43C331.384 199.333 334.895 200.649 334.456 204.596C334.456 205.473 334.017 206.131 333.139 206.35C333.798 208.105 333.578 208.324 335.114 209.42C334.895 208.982 334.895 208.763 335.114 207.885C336.651 207.008 338.406 206.35 338.845 203.938C341.698 205.693 340.601 208.763 340.162 209.64C343.234 208.982 345.429 207.885 346.965 206.57C343.234 205.035 340.162 199.114 335.334 198.017C332.92 197.579 329.628 197.579 327.653 198.895Z" fill="#10099F"/>
<path d="M410.828 50.8748C406.878 50.6555 402.927 50.6555 398.977 50.6555C398.758 50.6555 398.538 50.6555 398.319 50.6555C396.563 50.6555 394.807 50.8748 392.832 50.8748C392.393 50.8748 391.954 50.8748 391.516 50.8748C389.76 51.0941 388.004 51.0941 386.468 51.3134C386.249 51.3134 385.81 51.3134 385.59 51.3134C382.737 51.5327 379.665 51.9712 376.812 52.6291C375.934 52.8484 375.056 52.8484 374.178 53.0677C373.081 53.287 371.984 53.5063 370.886 53.7256C369.789 53.9448 368.692 54.1641 367.595 54.3834C366.497 54.6027 365.619 54.822 364.522 55.2606C363.425 55.4799 362.108 55.9184 361.011 56.1377C360.133 56.357 359.036 56.7956 358.158 57.0149C356.841 57.4535 355.744 57.892 354.427 58.1113C353.549 58.3306 352.671 58.7692 351.574 58.9885C350.257 59.4271 348.94 60.0849 347.404 60.5235C345.429 61.1814 343.673 62.0585 341.698 62.9357C341.04 63.155 340.382 63.3743 339.943 63.8128C338.406 64.4707 337.09 65.1286 335.553 65.7864C335.115 66.0057 334.676 66.225 334.237 66.4443C332.7 67.3214 331.164 67.9793 329.628 68.8565C329.409 68.8565 329.189 69.0758 328.97 69.0758C325.458 71.0494 322.166 73.0229 318.875 75.2158C318.216 75.6544 317.777 76.3123 317.558 76.9701C317.119 78.0666 317.338 79.163 317.777 80.2595L330.286 101.092C310.316 118.854 294.295 124.775 283.761 131.573C282.883 135.301 288.589 146.046 305.049 138.371C290.125 150.432 279.591 166.659 279.811 171.045C280.03 174.554 281.127 175.65 290.564 177.404C296.709 178.501 304.61 179.597 307.682 184.86C314.266 195.825 319.313 198.456 324.8 197.36C325.897 197.14 327.214 196.263 328.092 195.386C336.651 189.027 341.918 195.386 346.526 199.333C350.477 202.842 350.696 203.938 355.963 205.912C362.766 208.543 372.642 203.938 380.323 206.35C381.201 206.57 382.079 206.57 382.298 204.596C382.298 203.938 382.298 203.719 380.543 202.842C366.058 199.114 353.33 185.518 339.723 184.202C333.578 183.544 330.725 186.614 325.897 188.369C322.825 189.465 316.46 190.781 315.363 184.641C315.144 176.746 322.166 172.141 327.433 172.141C339.943 171.922 351.135 171.484 358.816 170.168C358.816 170.168 364.083 169.291 364.303 169.291C373.081 168.633 391.077 182.009 398.319 192.535C410.17 209.201 429.482 226.744 445.064 226.306C427.946 230.911 411.925 225.209 399.636 205.693C399.416 205.254 398.758 204.815 398.319 204.377C401.611 210.955 402.489 219.727 401.391 233.104C401.391 236.831 401.83 238.805 404.903 242.752C420.704 264.243 405.122 280.909 404.903 280.909C390.638 295.162 361.669 300.864 358.597 301.741C334.676 308.977 335.334 293.627 334.456 292.969C333.798 292.312 332.481 292.312 332.262 292.969C331.603 294.943 331.164 299.767 331.823 301.083C332.92 304.372 333.578 306.127 339.065 308.977C344.112 311.39 353.11 311.17 357.06 310.951C367.375 310.074 379.665 308.977 391.735 305.688C402.269 302.837 408.853 301.522 398.099 317.31C389.102 327.398 369.57 336.608 358.158 343.625C365.4 345.818 373.081 347.572 380.762 348.669C414.998 333.318 417.412 278.277 424.434 267.093C427.726 261.83 441.552 262.05 447.917 264.023L447.697 266.435C444.625 284.417 451.209 289.899 447.917 299.329C436.944 330.248 425.093 342.529 409.072 350.204C418.509 349.765 427.726 348.449 436.724 346.256C440.894 340.336 446.161 331.783 449.233 326.082C455.378 314.021 459.548 300.864 460.865 287.487C465.473 290.119 469.863 292.75 474.032 295.82C478.202 305.907 476.666 320.38 472.496 332.88C474.91 331.564 477.763 330.029 480.177 328.494C480.836 328.056 481.713 327.617 482.372 327.178C485.005 320.161 486.761 312.705 486.761 305.688C487.639 306.565 488.736 307.223 489.614 308.1C492.686 310.512 495.978 312.705 499.27 314.898C505.635 309.416 511.56 303.495 516.827 297.136C494.003 289.241 519.68 269.505 484.127 261.173C521.216 264.023 509.146 280.689 521.216 291.654C525.825 285.514 529.994 279.154 533.725 272.356C544.259 253.059 550.185 232.226 551.502 210.078C556.33 126.749 493.125 55.9184 410.828 50.8748ZM291.662 169.291C289.028 168.194 291.442 164.686 296.929 157.23C335.773 103.943 439.577 133.327 446.38 132.231C451.209 131.354 380.104 94.7325 327.653 122.363C318.436 127.187 296.929 136.178 295.612 132.231C295.612 132.231 320.85 119.512 332.042 109.425C332.7 108.767 333.578 108.328 334.237 107.89C335.992 106.574 337.529 105.258 339.284 104.162C359.255 92.1011 382.079 86.6188 405.561 87.9346C468.546 91.6625 516.607 144.73 512.877 206.35C512.657 210.517 512.218 214.464 511.34 218.631C508.268 214.683 505.854 211.175 505.634 210.517C505.634 210.517 513.755 110.96 408.633 95.1711C389.54 92.3203 369.131 95.3904 355.305 103.504C359.913 103.285 364.522 103.065 368.253 102.408C416.973 94.0746 499.27 123.021 496.198 198.456C496.198 200.868 464.157 149.774 413.462 140.345C356.841 129.599 330.286 145.827 330.286 145.827C330.286 145.827 367.814 141.002 407.975 149.116C454.062 158.326 489.395 194.29 507.61 229.595C506.293 232.226 491.15 230.911 487.419 226.306C475.569 211.833 444.186 173.896 403.147 164.247C320.191 144.511 294.953 170.826 291.662 169.291ZM447.697 206.789C433.213 208.105 423.996 180.036 398.099 171.922C429.043 173.896 435.846 198.675 447.697 206.789ZM381.64 171.045C406.878 172.361 435.846 215.78 448.795 219.069C429.921 220.385 401.391 177.843 381.64 171.045ZM405.342 219.508C421.801 253.936 436.944 228.279 450.55 254.375C438.699 244.507 409.072 264.023 405.342 219.508ZM500.806 302.618C485.225 280.47 456.037 284.636 459.987 260.734C465.473 276.742 493.345 261.173 500.806 302.618ZM485.005 266.435C422.02 240.121 472.496 220.823 450.55 200.21C481.933 225.209 442.65 242.752 485.005 266.435ZM520.997 270.163C515.51 241.656 465.693 260.295 472.716 222.578C481.274 256.348 526.264 219.946 520.997 270.163ZM544.04 208.763C542.943 226.525 538.773 243.41 531.531 259.199C528.897 248.234 523.85 237.051 516.388 225.648C517.705 219.508 518.583 213.368 519.022 207.008C522.972 142.099 472.277 86.1803 406 82.2331C381.859 80.698 358.377 86.3995 337.748 98.2411C337.529 98.2411 337.09 98.2411 336.87 98.4604L325.678 80.0402C350.916 64.0321 380.104 56.5763 410.17 58.3306C488.736 62.9357 548.649 130.477 544.04 208.763Z" fill="#C4C4C4"/>
<path d="M410.828 50.8748C406.878 50.6555 402.927 50.6555 398.977 50.6555C398.758 50.6555 398.538 50.6555 398.319 50.6555C396.563 50.6555 394.807 50.8748 392.832 50.8748C392.393 50.8748 391.954 50.8748 391.516 50.8748C389.76 51.0941 388.004 51.0941 386.468 51.3134C386.249 51.3134 385.81 51.3134 385.59 51.3134C382.737 51.5327 379.665 51.9712 376.812 52.6291C375.934 52.8484 375.056 52.8484 374.178 53.0677C373.081 53.287 371.984 53.5063 370.886 53.7256C369.789 53.9448 368.692 54.1641 367.595 54.3834C366.497 54.6027 365.619 54.822 364.522 55.2606C363.425 55.4799 362.108 55.9184 361.011 56.1377C360.133 56.357 359.036 56.7956 358.158 57.0149C356.841 57.4535 355.744 57.892 354.427 58.1113C353.549 58.3306 352.671 58.7692 351.574 58.9885C350.257 59.4271 348.94 60.0849 347.404 60.5235C345.429 61.1814 343.673 62.0585 341.698 62.9357C341.04 63.155 340.382 63.3743 339.943 63.8128C338.406 64.4707 337.09 65.1286 335.553 65.7864C335.115 66.0057 334.676 66.225 334.237 66.4443C332.7 67.3214 331.164 67.9793 329.628 68.8565C329.409 68.8565 329.189 69.0758 328.97 69.0758C325.458 71.0494 322.166 73.0229 318.875 75.2158C318.216 75.6544 317.777 76.3123 317.558 76.9701C317.119 78.0666 317.338 79.163 317.777 80.2595L330.286 101.092C310.316 118.854 294.295 124.775 283.761 131.573C282.883 135.301 288.589 146.046 305.049 138.371C290.125 150.432 279.591 166.659 279.811 171.045C280.03 174.554 281.127 175.65 290.564 177.404C296.709 178.501 304.61 179.597 307.682 184.86C314.266 195.825 319.313 198.456 324.8 197.36C325.897 197.14 327.214 196.263 328.092 195.386C336.651 189.027 341.918 195.386 346.526 199.333C350.477 202.842 350.696 203.938 355.963 205.912C362.766 208.543 372.642 203.938 380.323 206.35C381.201 206.57 382.079 206.57 382.298 204.596C382.298 203.938 382.298 203.719 380.543 202.842C366.058 199.114 353.33 185.518 339.723 184.202C333.578 183.544 330.725 186.614 325.897 188.369C322.825 189.465 316.46 190.781 315.363 184.641C315.144 176.746 322.166 172.141 327.433 172.141C339.943 171.922 351.135 171.484 358.816 170.168C358.816 170.168 364.083 169.291 364.303 169.291C373.081 168.633 391.077 182.009 398.319 192.535C410.17 209.201 429.482 226.744 445.064 226.306C427.946 230.911 411.925 225.209 399.636 205.693C399.416 205.254 398.758 204.815 398.319 204.377C401.611 210.955 402.489 219.727 401.391 233.104C401.391 236.831 401.83 238.805 404.903 242.752C420.704 264.243 405.122 280.909 404.903 280.909C390.638 295.162 361.669 300.864 358.597 301.741C334.676 308.977 335.334 293.627 334.456 292.969C333.798 292.312 332.481 292.312 332.262 292.969C331.603 294.943 331.164 299.767 331.823 301.083C332.92 304.372 333.578 306.127 339.065 308.977C344.112 311.39 353.11 311.17 357.06 310.951C367.375 310.074 379.665 308.977 391.735 305.688C402.269 302.837 408.853 301.522 398.099 317.31C389.102 327.398 369.57 336.608 358.158 343.625C365.4 345.818 373.081 347.572 380.762 348.669C414.998 333.318 417.412 278.277 424.434 267.093C427.726 261.83 441.552 262.05 447.917 264.023L447.697 266.435C444.625 284.417 451.209 289.899 447.917 299.329C436.944 330.248 425.093 342.529 409.072 350.204C418.509 349.765 427.726 348.449 436.724 346.256C440.894 340.336 446.161 331.783 449.233 326.082C455.378 314.021 459.548 300.864 460.865 287.487C465.473 290.119 469.863 292.75 474.032 295.82C478.202 305.907 476.666 320.38 472.496 332.88C474.91 331.564 477.763 330.029 480.177 328.494C480.836 328.056 481.713 327.617 482.372 327.178C485.005 320.161 486.761 312.705 486.761 305.688C487.639 306.565 488.736 307.223 489.614 308.1C492.686 310.512 495.978 312.705 499.27 314.898C505.635 309.416 511.56 303.495 516.827 297.136C494.003 289.241 519.68 269.505 484.127 261.173C521.216 264.023 509.146 280.689 521.216 291.654C525.825 285.514 529.994 279.154 533.725 272.356C544.259 253.059 550.185 232.226 551.502 210.078C556.33 126.749 493.125 55.9184 410.828 50.8748ZM291.662 169.291C289.028 168.194 291.442 164.686 296.929 157.23C335.773 103.943 439.577 133.327 446.38 132.231C451.209 131.354 380.104 94.7325 327.653 122.363C318.436 127.187 296.929 136.178 295.612 132.231C295.612 132.231 320.85 119.512 332.042 109.425C332.7 108.767 333.578 108.328 334.237 107.89C335.992 106.574 337.529 105.258 339.284 104.162C359.255 92.1011 382.079 86.6188 405.561 87.9346C468.546 91.6625 516.607 144.73 512.877 206.35C512.657 210.517 512.218 214.464 511.34 218.631C508.268 214.683 505.854 211.175 505.634 210.517C505.634 210.517 513.755 110.96 408.633 95.1711C389.54 92.3203 369.131 95.3904 355.305 103.504C359.913 103.285 364.522 103.065 368.253 102.408C416.973 94.0746 499.27 123.021 496.198 198.456C496.198 200.868 464.157 149.774 413.462 140.345C356.841 129.599 330.286 145.827 330.286 145.827C330.286 145.827 367.814 141.002 407.975 149.116C454.062 158.326 489.395 194.29 507.61 229.595C506.293 232.226 491.15 230.911 487.419 226.306C475.569 211.833 444.186 173.896 403.147 164.247C320.191 144.511 294.953 170.826 291.662 169.291ZM447.697 206.789C433.213 208.105 423.996 180.036 398.099 171.922C429.043 173.896 435.846 198.675 447.697 206.789ZM381.64 171.045C406.878 172.361 435.846 215.78 448.795 219.069C429.921 220.385 401.391 177.843 381.64 171.045ZM405.342 219.508C421.801 253.936 436.944 228.279 450.55 254.375C438.699 244.507 409.072 264.023 405.342 219.508ZM500.806 302.618C485.225 280.47 456.037 284.636 459.987 260.734C465.473 276.742 493.345 261.173 500.806 302.618ZM485.005 266.435C422.02 240.121 472.496 220.823 450.55 200.21C481.933 225.209 442.65 242.752 485.005 266.435ZM520.997 270.163C515.51 241.656 465.693 260.295 472.716 222.578C481.274 256.348 526.264 219.946 520.997 270.163ZM544.04 208.763C542.943 226.525 538.773 243.41 531.531 259.199C528.897 248.234 523.85 237.051 516.388 225.648C517.705 219.508 518.583 213.368 519.022 207.008C522.972 142.099 472.277 86.1803 406 82.2331C381.859 80.698 358.377 86.3995 337.748 98.2411C337.529 98.2411 337.09 98.2411 336.87 98.4604L325.678 80.0402C350.916 64.0321 380.104 56.5763 410.17 58.3306C488.736 62.9357 548.649 130.477 544.04 208.763Z" fill="#10099F"/>
</g>
<defs>
<clipPath id="clip0_1_140">
<rect width="812" height="789" fill="white"/>
</clipPath>
</defs>
</svg>
