<svg width="1298" height="400" viewBox="0 0 1298 400" fill="none" xmlns="http://www.w3.org/2000/svg">
<g clip-path="url(#clip0_1_81)">
<path d="M483.939 51.3721H514.721V98.1339H559.355V51.3721H590.357V172.338H559.355V123.82H514.721V172.338H483.939V51.3721Z" fill="#C4C4C4"/>
<path d="M483.939 51.3721H514.721V98.1339H559.355V51.3721H590.357V172.338H559.355V123.82H514.721V172.338H483.939V51.3721Z" fill="#10099F"/>
<path d="M614.104 172.338L674.349 49.8352H675.888L736.133 172.338H704.032L695.457 153.897H654.78L646.425 172.338H614.104ZM686.662 133.26C682.484 123.6 677.647 111.745 675.228 104.281C673.469 108.233 667.093 125.357 663.575 133.26H686.662ZM664.674 44.3467L674.349 23.271H701.393L683.803 44.3467H664.674Z" fill="#C4C4C4"/>
<path d="M614.104 172.338L674.349 49.8352H675.888L736.133 172.338H704.032L695.457 153.897H654.78L646.425 172.338H614.104ZM686.662 133.26C682.484 123.6 677.647 111.745 675.228 104.281C673.469 108.233 667.093 125.357 663.575 133.26H686.662ZM664.674 44.3467L674.349 23.271H701.393L683.803 44.3467H664.674Z" fill="#10099F"/>
<path d="M798.577 49.1765C810.67 49.1765 822.763 51.5914 830.898 54.8845V83.2051C823.642 78.5947 812.209 75.7407 801.215 75.7407C790.222 75.7407 782.966 79.6924 782.966 85.62C782.966 91.328 790.002 95.2797 804.074 100.988C824.522 109.111 838.374 117.673 838.374 139.188C838.374 161.58 821.663 174.972 791.541 174.972C777.689 174.972 764.057 172.338 754.822 168.386V138.529C763.397 143.139 773.731 146.432 783.406 147.31C786.704 147.75 790.002 147.75 793.08 147.53C802.974 146.871 808.471 144.237 808.471 139.188C808.471 132.821 800.995 129.528 786.044 124.039C765.596 116.355 752.624 108.013 752.624 85.8395C752.624 63.6661 770.873 49.1765 798.577 49.1765Z" fill="#C4C4C4"/>
<path d="M798.577 49.1765C810.67 49.1765 822.763 51.5914 830.898 54.8845V83.2051C823.642 78.5947 812.209 75.7407 801.215 75.7407C790.222 75.7407 782.966 79.6924 782.966 85.62C782.966 91.328 790.002 95.2797 804.074 100.988C824.522 109.111 838.374 117.673 838.374 139.188C838.374 161.58 821.663 174.972 791.541 174.972C777.689 174.972 764.057 172.338 754.822 168.386V138.529C763.397 143.139 773.731 146.432 783.406 147.31C786.704 147.75 790.002 147.75 793.08 147.53C802.974 146.871 808.471 144.237 808.471 139.188C808.471 132.821 800.995 129.528 786.044 124.039C765.596 116.355 752.624 108.013 752.624 85.8395C752.624 63.6661 770.873 49.1765 798.577 49.1765Z" fill="#10099F"/>
<path d="M870.035 51.3721H900.818V104.5L942.593 51.3721H978.652L936.657 102.964L979.312 172.338H945.232L915.769 122.503L901.037 140.066V172.558H870.255V51.3721H870.035Z" fill="#C4C4C4"/>
<path d="M870.035 51.3721H900.818V104.5L942.593 51.3721H978.652L936.657 102.964L979.312 172.338H945.232L915.769 122.503L901.037 140.066V172.558H870.255V51.3721H870.035Z" fill="#10099F"/>
<path d="M992.284 111.965C992.284 77.2776 1019.11 49.1766 1056.27 49.1766C1093.65 49.1766 1120.25 77.2776 1120.25 111.965C1120.25 147.091 1093.65 174.753 1056.27 174.753C1019.11 174.753 992.284 147.091 992.284 111.965ZM1056.27 146.652C1075.84 146.652 1089.25 130.626 1089.25 111.965C1089.25 93.3039 1076.06 77.2776 1056.27 77.2776C1036.7 77.2776 1023.07 93.3039 1023.07 111.965C1023.29 130.626 1036.7 146.652 1056.27 146.652ZM1045.93 44.3467L1055.61 23.271H1082.65L1065.06 44.3467H1045.93Z" fill="#C4C4C4"/>
<path d="M992.284 111.965C992.284 77.2776 1019.11 49.1766 1056.27 49.1766C1093.65 49.1766 1120.25 77.2776 1120.25 111.965C1120.25 147.091 1093.65 174.753 1056.27 174.753C1019.11 174.753 992.284 147.091 992.284 111.965ZM1056.27 146.652C1075.84 146.652 1089.25 130.626 1089.25 111.965C1089.25 93.3039 1076.06 77.2776 1056.27 77.2776C1036.7 77.2776 1023.07 93.3039 1023.07 111.965C1023.29 130.626 1036.7 146.652 1056.27 146.652ZM1045.93 44.3467L1055.61 23.271H1082.65L1065.06 44.3467H1045.93Z" fill="#10099F"/>
<path d="M1150.37 172.338V51.3721H1181.16V146.432H1224.91V172.338H1150.37Z" fill="#C4C4C4"/>
<path d="M1150.37 172.338V51.3721H1181.16V146.432H1224.91V172.338H1150.37Z" fill="#10099F"/>
<path d="M1256.13 172.338V51.3721H1286.91V172.338H1256.13Z" fill="#C4C4C4"/>
<path d="M1256.13 172.338V51.3721H1286.91V172.338H1256.13Z" fill="#10099F"/>
<path d="M483.939 349.286V228.32H514.721V349.286H483.939ZM496.032 200.439H523.076L505.487 221.515H486.358L496.032 200.439Z" fill="#C4C4C4"/>
<path d="M483.939 349.286V228.32H514.721V349.286H483.939ZM496.032 200.439H523.076L505.487 221.515H486.358L496.032 200.439Z" fill="#10099F"/>
<path d="M600.911 226.125C613.004 226.125 625.097 228.54 633.233 231.833V260.154C625.977 255.543 614.543 252.689 603.55 252.689C592.556 252.689 585.3 256.641 585.3 262.568C585.3 268.276 592.336 272.228 606.408 277.936C626.856 286.059 640.708 294.621 640.708 316.136C640.708 338.529 623.998 351.921 593.875 351.921C580.023 351.921 566.391 349.286 557.157 345.335V315.697C565.732 320.307 576.066 323.6 585.74 324.478C589.038 324.918 592.336 324.918 595.415 324.698C605.309 324.039 610.806 321.405 610.806 316.356C610.806 309.989 603.33 306.696 588.379 301.207C567.931 293.523 554.958 285.181 554.958 263.008C554.958 240.834 573.427 226.125 600.911 226.125Z" fill="#C4C4C4"/>
<path d="M600.911 226.125C613.004 226.125 625.097 228.54 633.233 231.833V260.154C625.977 255.543 614.543 252.689 603.55 252.689C592.556 252.689 585.3 256.641 585.3 262.568C585.3 268.276 592.336 272.228 606.408 277.936C626.856 286.059 640.708 294.621 640.708 316.136C640.708 338.529 623.998 351.921 593.875 351.921C580.023 351.921 566.391 349.286 557.157 345.335V315.697C565.732 320.307 576.066 323.6 585.74 324.478C589.038 324.918 592.336 324.918 595.415 324.698C605.309 324.039 610.806 321.405 610.806 316.356C610.806 309.989 603.33 306.696 588.379 301.207C567.931 293.523 554.958 285.181 554.958 263.008C554.958 240.834 573.427 226.125 600.911 226.125Z" fill="#10099F"/>
<path d="M676.767 349.286V228.32H707.55V323.381H751.304V349.286H676.767Z" fill="#C4C4C4"/>
<path d="M676.767 349.286V228.32H707.55V323.381H751.304V349.286H676.767Z" fill="#10099F"/>
<path d="M772.852 349.286L833.097 226.784H834.636L894.881 349.286H862.78L854.205 330.845H813.528L805.173 349.286H772.852ZM845.19 310.209C841.012 300.549 836.175 288.694 833.756 281.229C831.997 285.181 825.621 302.305 822.103 310.209H845.19Z" fill="#C4C4C4"/>
<path d="M772.852 349.286L833.097 226.784H834.636L894.881 349.286H862.78L854.205 330.845H813.528L805.173 349.286H772.852ZM845.19 310.209C841.012 300.549 836.175 288.694 833.756 281.229C831.997 285.181 825.621 302.305 822.103 310.209H845.19Z" fill="#10099F"/>
<path d="M923.245 226.784L984.809 281.229C988.107 283.864 991.405 286.937 994.703 289.352V228.32H1025.05V350.823H1023.95L961.722 296.378L952.048 288.255V349.286H921.925V226.784H923.245Z" fill="#C4C4C4"/>
<path d="M923.245 226.784L984.809 281.229C988.107 283.864 991.405 286.937 994.703 289.352V228.32H1025.05V350.823H1023.95L961.722 296.378L952.048 288.255V349.286H921.925V226.784H923.245Z" fill="#10099F"/>
<path d="M1071.88 349.286V228.32H1112.33C1154.77 228.32 1180.94 253.787 1180.94 288.694C1180.94 323.82 1154.77 349.067 1112.55 349.067H1071.88V349.286ZM1112.12 323.381C1136.74 323.381 1149.71 307.574 1149.71 288.694C1149.71 269.813 1136.52 254.006 1111.9 254.006H1102.44V323.161H1112.12V323.381Z" fill="#C4C4C4"/>
<path d="M1071.88 349.286V228.32H1112.33C1154.77 228.32 1180.94 253.787 1180.94 288.694C1180.94 323.82 1154.77 349.067 1112.55 349.067H1071.88V349.286ZM1112.12 323.381C1136.74 323.381 1149.71 307.574 1149.71 288.694C1149.71 269.813 1136.52 254.006 1111.9 254.006H1102.44V323.161H1112.12V323.381Z" fill="#10099F"/>
<path d="M1257.45 226.125C1269.54 226.125 1281.64 228.54 1289.77 231.833V260.154C1282.52 255.543 1271.08 252.689 1260.09 252.689C1249.1 252.689 1241.84 256.641 1241.84 262.568C1241.84 268.276 1248.88 272.228 1262.95 277.936C1283.4 286.059 1297.25 294.621 1297.25 316.136C1297.25 338.529 1280.54 351.921 1250.41 351.921C1236.56 351.921 1222.93 349.286 1213.7 345.335V315.697C1222.27 320.307 1232.61 323.6 1242.28 324.478C1245.58 324.918 1248.88 324.918 1251.95 324.698C1261.85 324.039 1267.34 321.405 1267.34 316.356C1267.34 309.989 1259.87 306.696 1244.92 301.207C1224.47 293.523 1211.5 285.181 1211.5 263.008C1211.5 240.834 1229.75 226.125 1257.45 226.125Z" fill="#C4C4C4"/>
<path d="M1257.45 226.125C1269.54 226.125 1281.64 228.54 1289.77 231.833V260.154C1282.52 255.543 1271.08 252.689 1260.09 252.689C1249.1 252.689 1241.84 256.641 1241.84 262.568C1241.84 268.276 1248.88 272.228 1262.95 277.936C1283.4 286.059 1297.25 294.621 1297.25 316.136C1297.25 338.529 1280.54 351.921 1250.41 351.921C1236.56 351.921 1222.93 349.286 1213.7 345.335V315.697C1222.27 320.307 1232.61 323.6 1242.28 324.478C1245.58 324.918 1248.88 324.918 1251.95 324.698C1261.85 324.039 1267.34 321.405 1267.34 316.356C1267.34 309.989 1259.87 306.696 1244.92 301.207C1224.47 293.523 1211.5 285.181 1211.5 263.008C1211.5 240.834 1229.75 226.125 1257.45 226.125Z" fill="#10099F"/>
<path d="M166.224 398.463C163.365 398.024 160.507 396.926 158.748 395.829L159.847 389.023C161.387 390.34 164.025 391.657 166.663 392.097C169.302 392.536 171.061 391.877 171.281 390.56C171.501 389.243 169.962 387.925 166.883 386.169C162.486 383.534 159.408 380.9 160.287 375.851C161.167 370.582 165.784 368.167 172.82 369.264C176.118 369.923 179.196 371.021 181.175 372.338L180.076 379.363C178.317 378.046 175.898 376.729 173.699 376.07C172.82 375.851 172.16 375.631 171.501 375.631C169.082 375.412 167.763 375.851 167.543 376.948C167.323 378.485 168.862 379.583 172.16 381.339C176.558 383.974 179.416 386.608 178.537 391.657C177.657 396.926 172.6 399.78 166.224 398.463Z" fill="#C4C4C4"/>
<path d="M166.224 398.463C163.365 398.024 160.507 396.926 158.748 395.829L159.847 389.023C161.387 390.34 164.025 391.657 166.663 392.097C169.302 392.536 171.061 391.877 171.281 390.56C171.501 389.243 169.962 387.925 166.883 386.169C162.486 383.534 159.408 380.9 160.287 375.851C161.167 370.582 165.784 368.167 172.82 369.264C176.118 369.923 179.196 371.021 181.175 372.338L180.076 379.363C178.317 378.046 175.898 376.729 173.699 376.07C172.82 375.851 172.16 375.631 171.501 375.631C169.082 375.412 167.763 375.851 167.543 376.948C167.323 378.485 168.862 379.583 172.16 381.339C176.558 383.974 179.416 386.608 178.537 391.657C177.657 396.926 172.6 399.78 166.224 398.463Z" fill="#10099F"/>
<path d="M147.974 363.557L138.3 390.779L131.264 388.364L140.938 361.142L147.974 363.557Z" fill="#C4C4C4"/>
<path d="M147.974 363.557L138.3 390.779L131.264 388.364L140.938 361.142L147.974 363.557Z" fill="#10099F"/>
<path d="M99.1624 373.875C95.4245 371.679 93.2258 369.264 92.1265 367.508L95.4246 361.581C96.5239 363.337 98.5028 365.532 102.021 367.508C106.858 370.362 111.475 368.606 113.674 364.654C115.873 360.702 115.213 355.873 110.596 353.238C109.716 352.799 108.617 352.36 107.737 352.14L104.219 358.287L98.063 354.775L104 344.457C107.078 344.676 110.816 345.774 113.894 347.53C122.029 352.14 124.228 361.142 120.05 368.386C116.093 375.851 107.078 378.266 99.1624 373.875Z" fill="#C4C4C4"/>
<path d="M99.1624 373.875C95.4245 371.679 93.2258 369.264 92.1265 367.508L95.4246 361.581C96.5239 363.337 98.5028 365.532 102.021 367.508C106.858 370.362 111.475 368.606 113.674 364.654C115.873 360.702 115.213 355.873 110.596 353.238C109.716 352.799 108.617 352.36 107.737 352.14L104.219 358.287L98.063 354.775L104 344.457C107.078 344.676 110.816 345.774 113.894 347.53C122.029 352.14 124.228 361.142 120.05 368.386C116.093 375.851 107.078 378.266 99.1624 373.875Z" fill="#10099F"/>
<path d="M93.0061 333.699L74.0971 355.653L68.3804 350.823L87.2894 328.869L93.0061 333.699Z" fill="#C4C4C4"/>
<path d="M93.0061 333.699L74.0971 355.653L68.3804 350.823L87.2894 328.869L93.0061 333.699Z" fill="#10099F"/>
<path d="M75.6361 317.673L53.429 336.334L48.5918 330.626L65.9617 315.917L59.1457 308.013L63.9829 304.062L75.6361 317.673Z" fill="#C4C4C4"/>
<path d="M75.6361 317.673L53.429 336.334L48.5918 330.626L65.9617 315.917L59.1457 308.013L63.9829 304.062L75.6361 317.673Z" fill="#10099F"/>
<path d="M56.2873 292.426L31.002 306.696L27.2642 300.329L47.0527 289.133L41.7757 280.132L47.2726 277.058L56.2873 292.426Z" fill="#C4C4C4"/>
<path d="M56.2873 292.426L31.002 306.696L27.2642 300.329L47.0527 289.133L41.7757 280.132L47.2726 277.058L56.2873 292.426Z" fill="#10099F"/>
<path d="M14.072 273.326L11.8733 266.301L28.5836 261.032C31.8817 259.934 33.2009 257.739 32.1016 254.446C31.0022 251.152 28.5836 250.055 25.2855 251.152L8.57519 256.421L6.37646 249.396L23.7464 243.908C30.3426 241.932 36.0593 245.005 38.258 252.47C40.6766 259.934 37.8182 265.862 31.2221 267.837L14.072 273.326Z" fill="#C4C4C4"/>
<path d="M14.072 273.326L11.8733 266.301L28.5836 261.032C31.8817 259.934 33.2009 257.739 32.1016 254.446C31.0022 251.152 28.5836 250.055 25.2855 251.152L8.57519 256.421L6.37646 249.396L23.7464 243.908C30.3426 241.932 36.0593 245.005 38.258 252.47C40.6766 259.934 37.8182 265.862 31.2221 267.837L14.072 273.326Z" fill="#10099F"/>
<path d="M1.75898 227.003L13.852 212.075L0 198.683V198.463L29.4629 196.707L29.9027 203.732L15.1712 204.61L16.7103 206.367C18.4693 208.123 20.4481 209.66 22.2071 211.416C20.668 213.392 18.909 215.148 17.3699 217.124L15.8308 219.1L30.5623 218.222L31.002 225.247L1.75898 227.003Z" fill="#C4C4C4"/>
<path d="M1.75898 227.003L13.852 212.075L0 198.683V198.463L29.4629 196.707L29.9027 203.732L15.1712 204.61L16.7103 206.367C18.4693 208.123 20.4481 209.66 22.2071 211.416C20.668 213.392 18.909 215.148 17.3699 217.124L15.8308 219.1L30.5623 218.222L31.002 225.247L1.75898 227.003Z" fill="#10099F"/>
<path d="M6.81592 150.823L9.01464 143.798L25.5051 149.287C28.8032 150.384 31.2218 149.287 32.3211 145.993C33.4205 142.7 32.1013 140.505 28.8032 139.407L12.3127 133.919L14.5115 126.894L31.8814 132.602C38.2577 134.797 41.116 140.505 38.6974 147.969C36.2788 155.434 30.5621 158.507 23.966 156.531L6.81592 150.823Z" fill="#C4C4C4"/>
<path d="M6.81592 150.823L9.01464 143.798L25.5051 149.287C28.8032 150.384 31.2218 149.287 32.3211 145.993C33.4205 142.7 32.1013 140.505 28.8032 139.407L12.3127 133.919L14.5115 126.894L31.8814 132.602C38.2577 134.797 41.116 140.505 38.6974 147.969C36.2788 155.434 30.5621 158.507 23.966 156.531L6.81592 150.823Z" fill="#10099F"/>
<path d="M23.9663 105.818L42.8753 100.11C43.7548 99.6707 44.8542 99.4511 45.7337 99.2316L33.201 91.5477L36.9388 85.4006L62.0042 100.768V100.988L43.0952 106.696L40.2369 107.574L52.7696 115.258L49.0318 121.405L23.9663 106.037V105.818Z" fill="#C4C4C4"/>
<path d="M23.9663 105.818L42.8753 100.11C43.7548 99.6707 44.8542 99.4511 45.7337 99.2316L33.201 91.5477L36.9388 85.4006L62.0042 100.768V100.988L43.0952 106.696L40.2369 107.574L52.7696 115.258L49.0318 121.405L23.9663 106.037V105.818Z" fill="#10099F"/>
<path d="M72.1183 88.2547L50.5708 68.7158L55.6279 63.2273L77.1754 82.7663L72.1183 88.2547Z" fill="#C4C4C4"/>
<path d="M72.1183 88.2547L50.5708 68.7158L55.6279 63.2273L77.1754 82.7663L72.1183 88.2547Z" fill="#10099F"/>
<path d="M74.7568 45.4445L82.4524 49.6157C85.0908 50.933 87.5094 52.4697 89.4883 53.5674C89.2684 52.4697 87.9492 47.8594 87.5094 45.8836L85.5306 37.3216L91.9069 32.4917L98.0633 64.7639L97.8434 64.9835L68.1606 50.2744L74.7568 45.4445Z" fill="#C4C4C4"/>
<path d="M74.7568 45.4445L82.4524 49.6157C85.0908 50.933 87.5094 52.4697 89.4883 53.5674C89.2684 52.4697 87.9492 47.8594 87.5094 45.8836L85.5306 37.3216L91.9069 32.4917L98.0633 64.7639L97.8434 64.9835L68.1606 50.2744L74.7568 45.4445Z" fill="#10099F"/>
<path d="M108.397 23.0517L125.547 14.9287L128.185 20.6367L117.632 25.4666L119.83 30.0769L128.845 25.9057L131.264 31.1746L122.249 35.3458L124.668 40.3952L135.661 35.1263L138.3 40.8343L120.49 49.1768L108.397 23.0517Z" fill="#C4C4C4"/>
<path d="M108.397 23.0517L125.547 14.9287L128.185 20.6367L117.632 25.4666L119.83 30.0769L128.845 25.9057L131.264 31.1746L122.249 35.3458L124.668 40.3952L135.661 35.1263L138.3 40.8343L120.49 49.1768L108.397 23.0517Z" fill="#10099F"/>
<path d="M152.152 36.4436L145.556 8.12306L155.89 5.70813C162.706 4.17136 167.983 6.36675 169.522 12.7334C170.401 16.9046 169.082 19.9782 166.224 22.1736L174.359 31.3942L166.883 32.931L160.067 24.808L156.989 25.4666L159.188 34.6873L152.152 36.4436ZM155.67 19.7586L159.188 18.8805C161.387 18.4414 162.706 16.9046 162.046 14.4897C161.386 12.0748 159.628 11.4161 157.429 11.8552L153.911 12.5138L155.67 19.7586Z" fill="#C4C4C4"/>
<path d="M152.152 36.4436L145.556 8.12306L155.89 5.70813C162.706 4.17136 167.983 6.36675 169.522 12.7334C170.401 16.9046 169.082 19.9782 166.224 22.1736L174.359 31.3942L166.883 32.931L160.067 24.808L156.989 25.4666L159.188 34.6873L152.152 36.4436ZM155.67 19.7586L159.188 18.8805C161.387 18.4414 162.706 16.9046 162.046 14.4897C161.386 12.0748 159.628 11.4161 157.429 11.8552L153.911 12.5138L155.67 19.7586Z" fill="#10099F"/>
<path d="M197.226 0C200.084 0 202.942 0.439078 204.921 1.09769L205.141 7.9034C203.382 6.80571 200.524 6.14709 197.885 6.36663C195.247 6.36663 193.488 7.46432 193.488 8.78156C193.488 10.0988 195.247 10.9769 198.545 12.2942C203.382 14.0505 206.9 16.0263 206.9 21.2953C207.12 26.5642 203.162 29.8573 195.906 30.0768C192.608 30.0768 189.31 29.6378 187.112 28.7596L186.892 21.7344C188.871 22.8321 191.509 23.4907 193.708 23.7102C194.587 23.7102 195.247 23.7102 195.906 23.7102C198.325 23.4907 199.644 22.8321 199.644 21.5148C199.644 19.978 197.665 19.3194 194.147 18.0022C189.31 16.2459 186.012 14.27 186.012 9.0011C186.452 3.73216 190.63 0.219539 197.226 0Z" fill="#C4C4C4"/>
<path d="M197.226 0C200.084 0 202.942 0.439078 204.921 1.09769L205.141 7.9034C203.382 6.80571 200.524 6.14709 197.885 6.36663C195.247 6.36663 193.488 7.46432 193.488 8.78156C193.488 10.0988 195.247 10.9769 198.545 12.2942C203.382 14.0505 206.9 16.0263 206.9 21.2953C207.12 26.5642 203.162 29.8573 195.906 30.0768C192.608 30.0768 189.31 29.6378 187.112 28.7596L186.892 21.7344C188.871 22.8321 191.509 23.4907 193.708 23.7102C194.587 23.7102 195.247 23.7102 195.906 23.7102C198.325 23.4907 199.644 22.8321 199.644 21.5148C199.644 19.978 197.665 19.3194 194.147 18.0022C189.31 16.2459 186.012 14.27 186.012 9.0011C186.452 3.73216 190.63 0.219539 197.226 0Z" fill="#10099F"/>
<path d="M222.071 30.7354L226.029 1.97583L233.285 3.07352L229.327 31.8331L222.071 30.7354Z" fill="#C4C4C4"/>
<path d="M222.071 30.7354L226.029 1.97583L233.285 3.07352L229.327 31.8331L222.071 30.7354Z" fill="#10099F"/>
<path d="M251.754 6.58618L273.521 13.6114L271.542 19.539L264.067 17.1241L257.031 38.8584L249.995 36.663L257.031 14.9287L249.555 12.5137L251.754 6.58618Z" fill="#C4C4C4"/>
<path d="M251.754 6.58618L273.521 13.6114L271.542 19.539L264.067 17.1241L257.031 38.8584L249.995 36.663L257.031 14.9287L249.555 12.5137L251.754 6.58618Z" fill="#10099F"/>
<path d="M274.621 45.0054L301.885 26.7837L302.105 27.0032L299.906 59.7145L293.31 55.7628L293.75 50.933L285.394 46.1031L281.437 48.9571L274.621 45.0054ZM294.189 45.664C294.409 43.2491 294.849 40.1756 295.289 38.1997C294.409 38.8583 291.111 41.4928 289.352 42.81L294.189 45.664Z" fill="#C4C4C4"/>
<path d="M274.621 45.0054L301.885 26.7837L302.105 27.0032L299.906 59.7145L293.31 55.7628L293.75 50.933L285.394 46.1031L281.437 48.9571L274.621 45.0054ZM294.189 45.664C294.409 43.2491 294.849 40.1756 295.289 38.1997C294.409 38.8583 291.111 41.4928 289.352 42.81L294.189 45.664Z" fill="#10099F"/>
<path d="M327.61 44.5664L344.54 59.9341L340.363 64.5445L334.646 59.2755L319.255 76.18L313.758 71.1306L329.149 54.2261L323.432 48.9572L327.61 44.5664Z" fill="#C4C4C4"/>
<path d="M327.61 44.5664L344.54 59.9341L340.363 64.5445L334.646 59.2755L319.255 76.18L313.758 71.1306L329.149 54.2261L323.432 48.9572L327.61 44.5664Z" fill="#10099F"/>
<path d="M334.206 91.9868L357.073 73.9846L361.69 79.6926L338.604 97.9144L334.206 91.9868Z" fill="#C4C4C4"/>
<path d="M334.206 91.9868L357.073 73.9846L361.69 79.6926L338.604 97.9144L334.206 91.9868Z" fill="#10099F"/>
<path d="M378.401 105.379C379.72 108.013 380.599 110.648 380.819 112.843L374.883 116.136C375.102 114.16 374.223 111.306 373.124 109.111C372.024 106.915 370.265 105.818 368.946 106.476C367.847 107.135 367.847 109.111 368.066 112.623C368.726 117.892 368.506 121.844 363.889 124.259C359.272 126.893 354.434 124.918 350.916 118.551C349.377 115.697 348.278 112.404 348.058 110.208L354.215 106.915C354.215 109.33 354.654 111.745 355.754 113.941C355.974 114.599 356.413 115.258 356.853 115.916C358.172 117.892 359.272 118.77 360.371 118.112C361.69 117.453 361.47 115.477 361.031 111.745C360.371 106.696 360.591 102.964 365.208 100.329C369.825 97.6947 375.322 99.451 378.401 105.379Z" fill="#C4C4C4"/>
<path d="M378.401 105.379C379.72 108.013 380.599 110.648 380.819 112.843L374.883 116.136C375.102 114.16 374.223 111.306 373.124 109.111C372.024 106.915 370.265 105.818 368.946 106.476C367.847 107.135 367.847 109.111 368.066 112.623C368.726 117.892 368.506 121.844 363.889 124.259C359.272 126.893 354.434 124.918 350.916 118.551C349.377 115.697 348.278 112.404 348.058 110.208L354.215 106.915C354.215 109.33 354.654 111.745 355.754 113.941C355.974 114.599 356.413 115.258 356.853 115.916C358.172 117.892 359.272 118.77 360.371 118.112C361.69 117.453 361.47 115.477 361.031 111.745C360.371 106.696 360.591 102.964 365.208 100.329C369.825 97.6947 375.322 99.451 378.401 105.379Z" fill="#10099F"/>
<path d="M368.726 162.459L397.09 156.531L398.629 163.776L370.265 169.704L368.726 162.459Z" fill="#C4C4C4"/>
<path d="M368.726 162.459L397.09 156.531L398.629 163.776L370.265 169.704L368.726 162.459Z" fill="#10099F"/>
<path d="M402.587 194.072C402.587 196.926 402.147 199.78 401.487 201.756L394.671 201.976C395.771 200.22 396.21 197.365 396.21 194.731C396.21 192.097 395.111 190.34 393.572 190.56C392.253 190.56 391.373 192.316 390.054 195.829C388.295 200.659 386.316 204.171 381.259 204.391C375.982 204.61 372.464 200.659 372.244 193.414C372.024 190.121 372.684 186.828 373.563 184.632L380.599 184.413C379.5 186.608 378.84 189.023 378.84 191.218C378.84 192.097 378.84 192.755 378.84 193.414C379.06 195.829 379.72 197.146 381.039 197.146C382.578 197.146 383.238 195.17 384.557 191.657C386.316 186.828 388.075 183.535 393.352 183.315C398.629 183.095 402.367 187.486 402.587 194.072Z" fill="#C4C4C4"/>
<path d="M402.587 194.072C402.587 196.926 402.147 199.78 401.487 201.756L394.671 201.976C395.771 200.22 396.21 197.365 396.21 194.731C396.21 192.097 395.111 190.34 393.572 190.56C392.253 190.56 391.373 192.316 390.054 195.829C388.295 200.659 386.316 204.171 381.259 204.391C375.982 204.61 372.464 200.659 372.244 193.414C372.024 190.121 372.684 186.828 373.563 184.632L380.599 184.413C379.5 186.608 378.84 189.023 378.84 191.218C378.84 192.097 378.84 192.755 378.84 193.414C379.06 195.829 379.72 197.146 381.039 197.146C382.578 197.146 383.238 195.17 384.557 191.657C386.316 186.828 388.075 183.535 393.352 183.315C398.629 183.095 402.367 187.486 402.587 194.072Z" fill="#10099F"/>
<path d="M372.244 218.88L400.828 223.271L399.728 230.516L377.081 227.003L375.542 237.322L369.386 236.443L372.244 218.88Z" fill="#C4C4C4"/>
<path d="M372.244 218.88L400.828 223.271L399.728 230.516L377.081 227.003L375.542 237.322L369.386 236.443L372.244 218.88Z" fill="#10099F"/>
<path d="M367.407 247.201L389.834 270.911L389.614 271.35L357.073 274.643L359.711 267.399L364.549 266.959L368.067 257.739L364.549 254.226L367.407 247.201ZM370.045 266.74C372.464 266.52 375.542 266.52 377.521 266.52C376.862 265.862 373.563 262.788 372.024 261.471L370.045 266.74Z" fill="#C4C4C4"/>
<path d="M367.407 247.201L389.834 270.911L389.614 271.35L357.073 274.643L359.711 267.399L364.549 266.959L368.067 257.739L364.549 254.226L367.407 247.201ZM370.045 266.74C372.464 266.52 375.542 266.52 377.521 266.52C376.862 265.862 373.563 262.788 372.024 261.471L370.045 266.74Z" fill="#10099F"/>
<path d="M375.322 302.305L356.193 307.355C355.314 307.574 354.214 307.794 353.335 308.233L365.428 316.356L361.47 322.283L337.064 306.037L337.284 305.818L356.413 300.769L359.272 299.89L347.179 291.767L351.136 285.84L375.542 302.086L375.322 302.305Z" fill="#C4C4C4"/>
<path d="M375.322 302.305L356.193 307.355C355.314 307.574 354.214 307.794 353.335 308.233L365.428 316.356L361.47 322.283L337.064 306.037L337.284 305.818L356.413 300.769L359.272 299.89L347.179 291.767L351.136 285.84L375.542 302.086L375.322 302.305Z" fill="#10099F"/>
<path d="M326.95 318.332L346.739 339.627L339.703 346.213C332.227 353.019 323.432 352.799 317.716 346.652C311.999 340.505 312.439 331.723 319.914 324.918L326.95 318.332ZM324.092 329.528C319.695 333.48 320.134 338.529 322.993 341.822C326.071 345.115 330.908 345.774 335.306 341.822L337.065 340.285L325.851 327.991L324.092 329.528Z" fill="#C4C4C4"/>
<path d="M326.95 318.332L346.739 339.627L339.703 346.213C332.227 353.019 323.432 352.799 317.716 346.652C311.999 340.505 312.439 331.723 319.914 324.918L326.95 318.332ZM324.092 329.528C319.695 333.48 320.134 338.529 322.993 341.822C326.071 345.115 330.908 345.774 335.306 341.822L337.065 340.285L325.851 327.991L324.092 329.528Z" fill="#10099F"/>
<path d="M295.508 344.237L310.9 368.825L304.743 372.777L289.352 348.189L295.508 344.237Z" fill="#C4C4C4"/>
<path d="M295.508 344.237L310.9 368.825L304.743 372.777L289.352 348.189L295.508 344.237Z" fill="#10099F"/>
<path d="M278.139 354.775L275.5 387.486L275.061 387.706L250.875 365.752L258.13 362.898L261.648 366.191L270.663 362.678L270.883 357.848L278.139 354.775ZM265.386 369.923C267.145 371.679 269.344 373.875 270.443 375.412C270.443 374.314 270.443 369.923 270.443 367.947L265.386 369.923Z" fill="#C4C4C4"/>
<path d="M278.139 354.775L275.5 387.486L275.061 387.706L250.875 365.752L258.13 362.898L261.648 366.191L270.663 362.678L270.883 357.848L278.139 354.775ZM265.386 369.923C267.145 371.679 269.344 373.875 270.443 375.412C270.443 374.314 270.443 369.923 270.443 367.947L265.386 369.923Z" fill="#10099F"/>
<path d="M242.959 396.926L224.27 400L223.171 393.853L234.604 391.877L233.725 386.828L223.83 388.364L222.951 382.656L232.845 381.12L231.966 375.631L219.873 377.607L218.773 371.46L238.122 368.386L242.959 396.926Z" fill="#C4C4C4"/>
<path d="M242.959 396.926L224.27 400L223.171 393.853L234.604 391.877L233.725 386.828L223.83 388.364L222.951 382.656L232.845 381.12L231.966 375.631L219.873 377.607L218.773 371.46L238.122 368.386L242.959 396.926Z" fill="#10099F"/>
<path d="M121.809 261.251C124.448 261.032 122.689 254.226 125.107 252.909C127.746 251.372 132.583 250.055 133.902 254.445C136.321 254.226 139.839 252.909 140.718 252.03C147.754 243.908 139.399 237.541 138.08 236.663C136.101 235.565 130.824 233.809 129.725 236.443C130.384 237.76 132.363 236.882 133.902 237.541C135.441 238.2 136.98 239.297 137.64 240.395C138.519 241.932 138.3 244.347 136.101 244.566C134.782 244.786 131.703 242.81 128.625 242.81C122.689 242.59 112.794 246.322 110.816 241.273C109.496 237.76 115.433 219.319 118.291 211.855C118.731 210.757 120.27 207.464 118.951 207.245C118.951 207.245 118.291 207.025 118.071 207.464C116.532 211.196 106.418 237.541 105.539 241.932C104.659 245.664 104.879 248.737 106.638 250.713C108.397 252.689 110.596 252.689 113.234 252.47C117.632 252.25 119.83 252.909 120.93 256.421C121.15 257.958 121.369 259.275 121.809 261.251Z" fill="#C4C4C4"/>
<path d="M121.809 261.251C124.448 261.032 122.689 254.226 125.107 252.909C127.746 251.372 132.583 250.055 133.902 254.445C136.321 254.226 139.839 252.909 140.718 252.03C147.754 243.908 139.399 237.541 138.08 236.663C136.101 235.565 130.824 233.809 129.725 236.443C130.384 237.76 132.363 236.882 133.902 237.541C135.441 238.2 136.98 239.297 137.64 240.395C138.519 241.932 138.3 244.347 136.101 244.566C134.782 244.786 131.703 242.81 128.625 242.81C122.689 242.59 112.794 246.322 110.816 241.273C109.496 237.76 115.433 219.319 118.291 211.855C118.731 210.757 120.27 207.464 118.951 207.245C118.951 207.245 118.291 207.025 118.071 207.464C116.532 211.196 106.418 237.541 105.539 241.932C104.659 245.664 104.879 248.737 106.638 250.713C108.397 252.689 110.596 252.689 113.234 252.47C117.632 252.25 119.83 252.909 120.93 256.421C121.15 257.958 121.369 259.275 121.809 261.251Z" fill="#10099F"/>
<path d="M134.562 287.596C137.2 284.742 144.456 283.205 146.215 278.156C146.435 277.717 146.215 275.741 145.555 275.741C144.236 275.521 144.236 276.838 143.137 277.278C140.718 278.156 138.08 277.278 135.221 277.278C130.824 277.278 126.207 277.936 125.987 281.229C128.845 283.864 132.363 284.083 133.023 290.23C133.902 290.011 134.122 288.474 134.562 287.596Z" fill="#C4C4C4"/>
<path d="M134.562 287.596C137.2 284.742 144.456 283.205 146.215 278.156C146.435 277.717 146.215 275.741 145.555 275.741C144.236 275.521 144.236 276.838 143.137 277.278C140.718 278.156 138.08 277.278 135.221 277.278C130.824 277.278 126.207 277.936 125.987 281.229C128.845 283.864 132.363 284.083 133.023 290.23C133.902 290.011 134.122 288.474 134.562 287.596Z" fill="#10099F"/>
<path d="M133.463 212.514C131.264 216.026 136.761 217.782 138.959 218.661C142.697 220.197 147.315 218.002 149.733 214.928C150.173 214.27 151.052 212.514 151.272 211.635C151.712 210.538 151.712 210.099 150.832 209.66C150.173 209.44 149.293 208.781 147.974 208.342C144.236 210.757 139.179 215.368 133.463 212.514Z" fill="#C4C4C4"/>
<path d="M133.463 212.514C131.264 216.026 136.761 217.782 138.959 218.661C142.697 220.197 147.315 218.002 149.733 214.928C150.173 214.27 151.052 212.514 151.272 211.635C151.712 210.538 151.712 210.099 150.832 209.66C150.173 209.44 149.293 208.781 147.974 208.342C144.236 210.757 139.179 215.368 133.463 212.514Z" fill="#10099F"/>
<path d="M135.002 271.35C137.86 271.35 140.279 272.887 142.917 272.887C144.896 272.887 149.513 272.228 150.393 267.837C144.236 267.837 140.279 266.959 135.661 264.983C133.682 264.105 131.704 262.129 129.725 262.568C127.306 263.227 124.448 266.081 120.05 266.081C120.49 268.716 122.469 271.789 125.547 272.448C128.625 273.106 131.704 271.35 135.002 271.35Z" fill="#C4C4C4"/>
<path d="M135.002 271.35C137.86 271.35 140.279 272.887 142.917 272.887C144.896 272.887 149.513 272.228 150.393 267.837C144.236 267.837 140.279 266.959 135.661 264.983C133.682 264.105 131.704 262.129 129.725 262.568C127.306 263.227 124.448 266.081 120.05 266.081C120.49 268.716 122.469 271.789 125.547 272.448C128.625 273.106 131.704 271.35 135.002 271.35Z" fill="#10099F"/>
<path d="M126.866 199.122C126.866 199.561 127.306 200.219 127.526 200.658C130.604 199.561 134.122 200.878 133.682 204.83C133.682 205.708 133.243 206.366 132.363 206.586C133.023 208.342 132.803 208.562 134.342 209.66C134.122 209.221 134.122 209.001 134.342 208.123C135.881 207.245 137.64 206.586 138.08 204.171C140.938 205.927 139.839 209.001 139.399 209.879C142.477 209.221 144.676 208.123 146.215 206.806C142.477 205.269 139.399 199.341 134.562 198.244C132.143 197.804 128.845 197.804 126.866 199.122Z" fill="#C4C4C4"/>
<path d="M126.866 199.122C126.866 199.561 127.306 200.219 127.526 200.658C130.604 199.561 134.122 200.878 133.682 204.83C133.682 205.708 133.243 206.366 132.363 206.586C133.023 208.342 132.803 208.562 134.342 209.66C134.122 209.221 134.122 209.001 134.342 208.123C135.881 207.245 137.64 206.586 138.08 204.171C140.938 205.927 139.839 209.001 139.399 209.879C142.477 209.221 144.676 208.123 146.215 206.806C142.477 205.269 139.399 199.341 134.562 198.244C132.143 197.804 128.845 197.804 126.866 199.122Z" fill="#10099F"/>
<path d="M210.198 50.9329C206.24 50.7134 202.282 50.7134 198.325 50.7134C198.105 50.7134 197.885 50.7134 197.665 50.7134C195.906 50.7134 194.147 50.9329 192.168 50.9329C191.729 50.9329 191.289 50.9329 190.849 50.9329C189.09 51.1525 187.331 51.1525 185.792 51.372C185.572 51.372 185.132 51.372 184.913 51.372C182.054 51.5915 178.976 52.0306 176.118 52.6892C175.238 52.9088 174.359 52.9088 173.479 53.1283C172.38 53.3478 171.28 53.5674 170.181 53.7869C169.082 54.0065 167.982 54.226 166.883 54.4455C165.784 54.6651 164.904 54.8846 163.805 55.3237C162.705 55.5432 161.386 55.9823 160.287 56.2019C159.407 56.4214 158.308 56.8605 157.429 57.08C156.109 57.5191 155.01 57.9582 153.691 58.1777C152.811 58.3972 151.932 58.8363 150.832 59.0559C149.513 59.4949 148.194 60.1536 146.655 60.5926C144.676 61.2512 142.917 62.1294 140.938 63.0076C140.278 63.2271 139.619 63.4466 139.179 63.8857C137.64 64.5443 136.321 65.2029 134.782 65.8616C134.342 66.0811 133.902 66.3006 133.462 66.5202C131.923 67.3983 130.384 68.057 128.845 68.9351C128.625 68.9351 128.405 69.1546 128.185 69.1546C124.668 71.1305 121.369 73.1063 118.071 75.3017C117.412 75.7408 116.972 76.3994 116.752 77.058C116.312 78.1557 116.532 79.2534 116.972 80.3511L129.505 101.207C109.496 118.99 93.4456 124.918 82.8917 131.723C82.0122 135.455 87.7289 146.213 104.219 138.529C89.268 150.604 78.7142 166.849 78.934 171.24C79.1539 174.753 80.2533 175.851 89.7078 177.607C95.8642 178.705 103.78 179.802 106.858 185.071C113.454 196.048 118.511 198.683 124.008 197.585C125.107 197.365 126.426 196.487 127.306 195.609C135.881 189.242 141.158 195.609 145.775 199.561C149.733 203.073 149.953 204.171 155.23 206.147C162.046 208.781 171.94 204.171 179.636 206.586C180.515 206.806 181.395 206.806 181.614 204.83C181.614 204.171 181.614 203.952 179.856 203.073C165.344 199.341 152.591 185.73 138.959 184.413C132.803 183.754 129.944 186.828 125.107 188.584C122.029 189.682 115.653 190.999 114.553 184.852C114.333 176.948 121.369 172.338 126.646 172.338C139.179 172.118 150.393 171.679 158.088 170.362C158.088 170.362 163.365 169.484 163.585 169.484C172.38 168.825 190.409 181.998 197.665 192.755C209.538 209.44 228.887 227.003 244.498 226.564C227.348 231.174 211.297 225.466 198.984 205.927C198.765 205.488 198.105 205.049 197.665 204.61C200.963 211.196 201.843 219.978 200.743 233.37C200.743 237.102 201.183 239.078 204.261 243.029C220.092 264.544 204.481 281.229 204.261 281.229C189.97 295.499 160.946 301.207 157.868 302.085C133.902 309.33 134.562 293.963 133.682 293.304C133.023 292.645 131.703 292.645 131.484 293.304C130.824 295.28 130.384 300.11 131.044 301.427C132.143 304.72 132.803 306.476 138.3 309.33C143.357 311.745 152.371 311.526 156.329 311.306C166.663 310.428 178.976 309.33 191.069 306.037C201.623 303.183 208.219 301.866 197.445 317.673C188.431 327.772 168.862 336.992 157.429 344.017C164.684 346.213 172.38 347.969 180.075 349.067C214.375 333.699 216.794 278.595 223.83 267.398C227.128 262.129 240.98 262.349 247.356 264.325L247.136 266.74C244.058 284.742 250.654 290.23 247.356 299.671C236.363 330.626 224.49 342.92 208.439 350.604C217.893 350.164 227.128 348.847 236.143 346.652C240.32 340.724 245.597 332.162 248.676 326.454C254.832 314.38 259.01 301.207 260.329 287.815C264.946 290.45 269.344 293.084 273.521 296.158C277.699 306.257 276.16 320.746 271.982 333.26C274.401 331.943 277.259 330.406 279.678 328.869C280.337 328.43 281.217 327.991 281.876 327.552C284.515 320.527 286.274 313.062 286.274 306.037C287.153 306.915 288.253 307.574 289.132 308.452C292.21 310.867 295.508 313.062 298.806 315.258C305.183 309.769 311.119 303.842 316.396 297.475C293.53 289.572 319.255 269.813 283.635 261.471C320.794 264.325 308.701 281.01 320.794 291.987C325.411 285.84 329.589 279.473 333.326 272.667C343.88 253.348 349.817 232.492 351.136 210.318C355.973 126.893 292.87 55.9823 210.198 50.9329ZM91.027 169.484C88.3886 168.386 90.8071 164.874 96.304 157.409C135.221 104.061 239.221 133.48 246.037 132.382C250.874 131.504 179.636 94.8407 127.086 122.503C117.851 127.332 96.304 136.334 94.9847 132.382C94.9847 132.382 120.27 119.649 131.484 109.55C132.143 108.891 132.803 108.452 133.682 108.013C135.441 106.696 136.98 105.379 138.739 104.281C158.748 92.2062 181.614 86.7178 205.141 88.035C268.244 91.7672 316.396 144.896 312.658 206.586C312.439 210.757 311.999 214.709 311.339 218.88C308.261 214.929 305.842 211.416 305.623 210.757C305.623 210.757 313.758 111.087 208.439 95.2798C189.31 92.4258 168.862 95.4993 155.01 103.622C159.627 103.403 164.245 103.183 167.982 102.525C216.794 94.1821 299.246 123.161 296.168 198.683C296.168 201.098 264.067 149.945 213.276 140.505C156.329 130.186 129.725 146.213 129.725 146.213C129.725 146.213 167.323 141.383 207.559 149.506C253.733 158.727 289.132 194.731 307.382 230.077C306.062 232.711 290.891 231.394 287.153 226.784C275.28 212.294 243.838 174.314 202.722 164.654C119.391 144.676 94.3251 171.021 91.027 169.484ZM247.356 207.025C232.845 208.342 223.61 180.241 197.665 172.118C228.447 174.094 235.263 198.902 247.356 207.025ZM180.955 171.24C206.24 172.558 235.043 216.026 248.236 219.319C229.547 220.637 200.743 178.046 180.955 171.24ZM204.701 219.758C221.192 254.226 236.363 228.54 249.995 254.665C238.122 244.786 208.659 264.325 204.701 219.758ZM300.565 302.964C284.955 280.79 255.712 284.961 259.669 261.032C265.166 277.058 292.87 261.471 300.565 302.964ZM284.515 266.74C221.411 240.395 271.982 221.076 249.995 200.439C281.437 225.466 242.079 243.029 284.515 266.74ZM320.574 270.252C315.077 241.712 265.166 260.373 272.202 222.612C280.997 256.641 326.071 220.197 320.574 270.252ZM343.66 209.001C342.561 226.784 338.384 243.688 331.128 259.495C328.489 248.518 323.432 237.321 315.957 225.905C317.276 219.758 318.155 213.611 318.595 207.245C322.553 142.261 271.762 86.2787 205.361 82.327C181.175 80.7902 157.648 86.4982 136.98 98.3533C136.76 98.3533 136.321 98.3533 136.101 98.5729L124.887 80.1316C150.173 64.1053 179.416 56.6409 209.538 58.3972C288.253 63.0076 348.278 130.626 343.66 209.001Z" fill="#C4C4C4"/>
<path d="M210.198 50.9329C206.24 50.7134 202.282 50.7134 198.325 50.7134C198.105 50.7134 197.885 50.7134 197.665 50.7134C195.906 50.7134 194.147 50.9329 192.168 50.9329C191.729 50.9329 191.289 50.9329 190.849 50.9329C189.09 51.1525 187.331 51.1525 185.792 51.372C185.572 51.372 185.132 51.372 184.913 51.372C182.054 51.5915 178.976 52.0306 176.118 52.6892C175.238 52.9088 174.359 52.9088 173.479 53.1283C172.38 53.3478 171.28 53.5674 170.181 53.7869C169.082 54.0065 167.982 54.226 166.883 54.4455C165.784 54.6651 164.904 54.8846 163.805 55.3237C162.705 55.5432 161.386 55.9823 160.287 56.2019C159.407 56.4214 158.308 56.8605 157.429 57.08C156.109 57.5191 155.01 57.9582 153.691 58.1777C152.811 58.3972 151.932 58.8363 150.832 59.0559C149.513 59.4949 148.194 60.1536 146.655 60.5926C144.676 61.2512 142.917 62.1294 140.938 63.0076C140.278 63.2271 139.619 63.4466 139.179 63.8857C137.64 64.5443 136.321 65.2029 134.782 65.8616C134.342 66.0811 133.902 66.3006 133.462 66.5202C131.923 67.3983 130.384 68.057 128.845 68.9351C128.625 68.9351 128.405 69.1546 128.185 69.1546C124.668 71.1305 121.369 73.1063 118.071 75.3017C117.412 75.7408 116.972 76.3994 116.752 77.058C116.312 78.1557 116.532 79.2534 116.972 80.3511L129.505 101.207C109.496 118.99 93.4456 124.918 82.8917 131.723C82.0122 135.455 87.7289 146.213 104.219 138.529C89.268 150.604 78.7142 166.849 78.934 171.24C79.1539 174.753 80.2533 175.851 89.7078 177.607C95.8642 178.705 103.78 179.802 106.858 185.071C113.454 196.048 118.511 198.683 124.008 197.585C125.107 197.365 126.426 196.487 127.306 195.609C135.881 189.242 141.158 195.609 145.775 199.561C149.733 203.073 149.953 204.171 155.23 206.147C162.046 208.781 171.94 204.171 179.636 206.586C180.515 206.806 181.395 206.806 181.614 204.83C181.614 204.171 181.614 203.952 179.856 203.073C165.344 199.341 152.591 185.73 138.959 184.413C132.803 183.754 129.944 186.828 125.107 188.584C122.029 189.682 115.653 190.999 114.553 184.852C114.333 176.948 121.369 172.338 126.646 172.338C139.179 172.118 150.393 171.679 158.088 170.362C158.088 170.362 163.365 169.484 163.585 169.484C172.38 168.825 190.409 181.998 197.665 192.755C209.538 209.44 228.887 227.003 244.498 226.564C227.348 231.174 211.297 225.466 198.984 205.927C198.765 205.488 198.105 205.049 197.665 204.61C200.963 211.196 201.843 219.978 200.743 233.37C200.743 237.102 201.183 239.078 204.261 243.029C220.092 264.544 204.481 281.229 204.261 281.229C189.97 295.499 160.946 301.207 157.868 302.085C133.902 309.33 134.562 293.963 133.682 293.304C133.023 292.645 131.703 292.645 131.484 293.304C130.824 295.28 130.384 300.11 131.044 301.427C132.143 304.72 132.803 306.476 138.3 309.33C143.357 311.745 152.371 311.526 156.329 311.306C166.663 310.428 178.976 309.33 191.069 306.037C201.623 303.183 208.219 301.866 197.445 317.673C188.431 327.772 168.862 336.992 157.429 344.017C164.684 346.213 172.38 347.969 180.075 349.067C214.375 333.699 216.794 278.595 223.83 267.398C227.128 262.129 240.98 262.349 247.356 264.325L247.136 266.74C244.058 284.742 250.654 290.23 247.356 299.671C236.363 330.626 224.49 342.92 208.439 350.604C217.893 350.164 227.128 348.847 236.143 346.652C240.32 340.724 245.597 332.162 248.676 326.454C254.832 314.38 259.01 301.207 260.329 287.815C264.946 290.45 269.344 293.084 273.521 296.158C277.699 306.257 276.16 320.746 271.982 333.26C274.401 331.943 277.259 330.406 279.678 328.869C280.337 328.43 281.217 327.991 281.876 327.552C284.515 320.527 286.274 313.062 286.274 306.037C287.153 306.915 288.253 307.574 289.132 308.452C292.21 310.867 295.508 313.062 298.806 315.258C305.183 309.769 311.119 303.842 316.396 297.475C293.53 289.572 319.255 269.813 283.635 261.471C320.794 264.325 308.701 281.01 320.794 291.987C325.411 285.84 329.589 279.473 333.326 272.667C343.88 253.348 349.817 232.492 351.136 210.318C355.973 126.893 292.87 55.9823 210.198 50.9329ZM91.027 169.484C88.3886 168.386 90.8071 164.874 96.304 157.409C135.221 104.061 239.221 133.48 246.037 132.382C250.874 131.504 179.636 94.8407 127.086 122.503C117.851 127.332 96.304 136.334 94.9847 132.382C94.9847 132.382 120.27 119.649 131.484 109.55C132.143 108.891 132.803 108.452 133.682 108.013C135.441 106.696 136.98 105.379 138.739 104.281C158.748 92.2062 181.614 86.7178 205.141 88.035C268.244 91.7672 316.396 144.896 312.658 206.586C312.439 210.757 311.999 214.709 311.339 218.88C308.261 214.929 305.842 211.416 305.623 210.757C305.623 210.757 313.758 111.087 208.439 95.2798C189.31 92.4258 168.862 95.4993 155.01 103.622C159.627 103.403 164.245 103.183 167.982 102.525C216.794 94.1821 299.246 123.161 296.168 198.683C296.168 201.098 264.067 149.945 213.276 140.505C156.329 130.186 129.725 146.213 129.725 146.213C129.725 146.213 167.323 141.383 207.559 149.506C253.733 158.727 289.132 194.731 307.382 230.077C306.062 232.711 290.891 231.394 287.153 226.784C275.28 212.294 243.838 174.314 202.722 164.654C119.391 144.676 94.3251 171.021 91.027 169.484ZM247.356 207.025C232.845 208.342 223.61 180.241 197.665 172.118C228.447 174.094 235.263 198.902 247.356 207.025ZM180.955 171.24C206.24 172.558 235.043 216.026 248.236 219.319C229.547 220.637 200.743 178.046 180.955 171.24ZM204.701 219.758C221.192 254.226 236.363 228.54 249.995 254.665C238.122 244.786 208.659 264.325 204.701 219.758ZM300.565 302.964C284.955 280.79 255.712 284.961 259.669 261.032C265.166 277.058 292.87 261.471 300.565 302.964ZM284.515 266.74C221.411 240.395 271.982 221.076 249.995 200.439C281.437 225.466 242.079 243.029 284.515 266.74ZM320.574 270.252C315.077 241.712 265.166 260.373 272.202 222.612C280.997 256.641 326.071 220.197 320.574 270.252ZM343.66 209.001C342.561 226.784 338.384 243.688 331.128 259.495C328.489 248.518 323.432 237.321 315.957 225.905C317.276 219.758 318.155 213.611 318.595 207.245C322.553 142.261 271.762 86.2787 205.361 82.327C181.175 80.7902 157.648 86.4982 136.98 98.3533C136.76 98.3533 136.321 98.3533 136.101 98.5729L124.887 80.1316C150.173 64.1053 179.416 56.6409 209.538 58.3972C288.253 63.0076 348.278 130.626 343.66 209.001Z" fill="#10099F"/>
</g>
<defs>
<clipPath id="clip0_1_81">
<rect width="1297.25" height="400" fill="white"/>
</clipPath>
</defs>
</svg>
