<svg width="862" height="400" viewBox="0 0 862 400" fill="none" xmlns="http://www.w3.org/2000/svg">
<g clip-path="url(#clip0_1_15)">
<path d="M443.829 64.4368H520.723V181.315H632.526V64.4368H709.881V367.09H632.526V245.598H520.723V367.09H443.829V64.4368Z" fill="#C4C4C4"/>
<path d="M443.829 64.4368H520.723V181.315H632.526V64.4368H709.881V367.09H632.526V245.598H520.723V367.09H443.829V64.4368Z" fill="#10099F"/>
<path d="M846.289 64.4368H769.396V367.09H846.289V64.4368Z" fill="#C4C4C4"/>
<path d="M846.289 64.4368H769.396V367.09H846.289V64.4368Z" fill="#10099F"/>
<path d="M797.232 0H861.207L821.069 46.7512H775.702L797.232 0Z" fill="#C4C4C4"/>
<path d="M797.232 0H861.207L821.069 46.7512H775.702L797.232 0Z" fill="#10099F"/>
<path d="M153.787 398.616C151.173 398.155 148.558 397.232 147.021 396.155L148.097 390.004C149.481 391.234 151.942 392.311 154.249 392.772C156.709 393.233 158.401 392.618 158.555 391.234C158.708 390.004 157.324 388.927 154.556 387.082C150.404 384.621 147.636 382.161 148.558 377.393C149.327 372.472 153.633 370.165 160.092 371.396C163.168 371.857 166.09 373.087 167.782 374.164L166.705 380.623C165.014 379.239 162.861 378.162 160.861 377.701C160.092 377.547 159.477 377.393 158.708 377.239C156.555 377.086 155.171 377.393 155.017 378.47C154.71 379.854 156.248 380.777 159.323 382.622C163.476 385.083 166.09 387.389 165.167 392.311C164.245 397.232 159.785 399.692 153.787 398.616Z" fill="#C4C4C4"/>
<path d="M153.787 398.616C151.173 398.155 148.558 397.232 147.021 396.155L148.097 390.004C149.481 391.234 151.942 392.311 154.249 392.772C156.709 393.233 158.401 392.618 158.555 391.234C158.708 390.004 157.324 388.927 154.556 387.082C150.404 384.621 147.636 382.161 148.558 377.393C149.327 372.472 153.633 370.165 160.092 371.396C163.168 371.857 166.09 373.087 167.782 374.164L166.705 380.623C165.014 379.239 162.861 378.162 160.861 377.701C160.092 377.547 159.477 377.393 158.708 377.239C156.555 377.086 155.171 377.393 155.017 378.47C154.71 379.854 156.248 380.777 159.323 382.622C163.476 385.083 166.09 387.389 165.167 392.311C164.245 397.232 159.785 399.692 153.787 398.616Z" fill="#10099F"/>
<path d="M136.87 366.321L127.951 391.696L121.492 389.389L130.411 364.014L136.87 366.321Z" fill="#C4C4C4"/>
<path d="M136.87 366.321L127.951 391.696L121.492 389.389L130.411 364.014L136.87 366.321Z" fill="#10099F"/>
<path d="M91.8111 375.702C88.4278 373.702 86.4285 371.549 85.1982 369.858L88.274 364.475C89.3505 366.013 91.1959 368.166 94.2717 370.012C98.7315 372.626 103.038 370.934 105.037 367.397C107.19 363.706 106.421 359.247 102.269 356.786C101.5 356.325 100.423 355.863 99.6542 355.709L96.2709 361.4L90.5808 358.17L96.1171 348.481C98.8853 348.635 102.422 349.712 105.191 351.403C112.726 355.709 114.725 364.014 110.881 370.781C107.344 377.547 99.0391 379.854 91.8111 375.702Z" fill="#C4C4C4"/>
<path d="M91.8111 375.702C88.4278 373.702 86.4285 371.549 85.1982 369.858L88.274 364.475C89.3505 366.013 91.1959 368.166 94.2717 370.012C98.7315 372.626 103.038 370.934 105.037 367.397C107.19 363.706 106.421 359.247 102.269 356.786C101.5 356.325 100.423 355.863 99.6542 355.709L96.2709 361.4L90.5808 358.17L96.1171 348.481C98.8853 348.635 102.422 349.712 105.191 351.403C112.726 355.709 114.725 364.014 110.881 370.781C107.344 377.547 99.0391 379.854 91.8111 375.702Z" fill="#10099F"/>
<path d="M86.1209 338.485L68.7429 358.939L63.5142 354.479L80.8921 334.025L86.1209 338.485Z" fill="#C4C4C4"/>
<path d="M86.1209 338.485L68.7429 358.939L63.5142 354.479L80.8921 334.025L86.1209 338.485Z" fill="#10099F"/>
<path d="M70.1269 323.568L49.6732 340.946L45.2134 335.717L61.361 322.03L55.0558 314.648L59.3618 310.957L70.1269 323.568Z" fill="#C4C4C4"/>
<path d="M70.1269 323.568L49.6732 340.946L45.2134 335.717L61.361 322.03L55.0558 314.648L59.3618 310.957L70.1269 323.568Z" fill="#10099F"/>
<path d="M52.1339 300.192L28.7583 313.572L25.375 307.574L43.6756 297.117L38.9083 288.658L43.8294 285.736L52.1339 300.192Z" fill="#C4C4C4"/>
<path d="M52.1339 300.192L28.7583 313.572L25.375 307.574L43.6756 297.117L38.9083 288.658L43.8294 285.736L52.1339 300.192Z" fill="#10099F"/>
<path d="M12.918 282.66L10.9187 276.201L26.2974 271.28C29.3732 270.357 30.6035 268.204 29.5269 265.129C28.6042 262.053 26.2974 261.13 23.3755 262.053L7.99677 266.974L5.84375 260.361L21.9914 255.286C27.9891 253.441 33.2178 256.209 35.5246 263.283C37.6777 270.357 35.0633 275.74 29.0656 277.585L12.918 282.66Z" fill="#C4C4C4"/>
<path d="M12.918 282.66L10.9187 276.201L26.2974 271.28C29.3732 270.357 30.6035 268.204 29.5269 265.129C28.6042 262.053 26.2974 261.13 23.3755 262.053L7.99677 266.974L5.84375 260.361L21.9914 255.286C27.9891 253.441 33.2178 256.209 35.5246 263.283C37.6777 270.357 35.0633 275.74 29.0656 277.585L12.918 282.66Z" fill="#10099F"/>
<path d="M1.53787 239.6L12.6105 225.759L0 213.456V213.303L27.2203 211.765L27.5279 218.377L13.8408 219.146L15.3787 220.838C17.0704 222.376 18.762 223.914 20.4537 225.605C18.9158 227.297 17.5317 229.143 15.9938 230.834L14.6098 232.68L28.2968 231.911L28.6044 238.37L1.53787 239.6Z" fill="#C4C4C4"/>
<path d="M1.53787 239.6L12.6105 225.759L0 213.456V213.303L27.2203 211.765L27.5279 218.377L13.8408 219.146L15.3787 220.838C17.0704 222.376 18.762 223.914 20.4537 225.605C18.9158 227.297 17.5317 229.143 15.9938 230.834L14.6098 232.68L28.2968 231.911L28.6044 238.37L1.53787 239.6Z" fill="#10099F"/>
<path d="M6.30518 169.012L8.45819 162.553L23.8369 167.474C26.9126 168.397 29.0657 167.474 30.1422 164.398C31.0649 161.322 29.8346 159.323 26.9126 158.247L11.5339 153.326L13.687 146.866L29.6808 152.095C35.6785 154.094 38.2929 159.477 35.9861 166.397C33.6793 173.318 28.4505 176.24 22.4528 174.241L6.30518 169.012Z" fill="#C4C4C4"/>
<path d="M6.30518 169.012L8.45819 162.553L23.8369 167.474C26.9126 168.397 29.0657 167.474 30.1422 164.398C31.0649 161.322 29.8346 159.323 26.9126 158.247L11.5339 153.326L13.687 146.866L29.6808 152.095C35.6785 154.094 38.2929 159.477 35.9861 166.397C33.6793 173.318 28.4505 176.24 22.4528 174.241L6.30518 169.012Z" fill="#10099F"/>
<path d="M22.1455 127.336L39.5234 122.107C40.4461 121.799 41.3689 121.492 42.2916 121.184L30.7576 114.11L34.2947 108.42L57.5165 122.722L57.3627 122.876L39.831 128.258L37.2166 129.181L48.7506 136.255L45.2135 141.946L21.9917 127.643L22.1455 127.336Z" fill="#C4C4C4"/>
<path d="M22.1455 127.336L39.5234 122.107C40.4461 121.799 41.3689 121.492 42.2916 121.184L30.7576 114.11L34.2947 108.42L57.5165 122.722L57.3627 122.876L39.831 128.258L37.2166 129.181L48.7506 136.255L45.2135 141.946L21.9917 127.643L22.1455 127.336Z" fill="#10099F"/>
<path d="M66.7438 111.034L46.9053 92.8872L51.5189 87.8123L71.3574 105.959L66.7438 111.034Z" fill="#C4C4C4"/>
<path d="M66.7438 111.034L46.9053 92.8872L51.5189 87.8123L71.3574 105.959L66.7438 111.034Z" fill="#10099F"/>
<path d="M69.0504 71.3572L76.2784 75.2019C78.739 76.5859 81.0458 77.8162 82.7375 78.8927C82.5837 77.97 81.3534 73.664 80.892 71.6648L79.2004 63.6678L85.1981 59.208L90.7344 89.1965L90.4268 89.3503L63.0527 75.9708L69.0504 71.3572Z" fill="#C4C4C4"/>
<path d="M69.0504 71.3572L76.2784 75.2019C78.739 76.5859 81.0458 77.8162 82.7375 78.8927C82.5837 77.97 81.3534 73.664 80.892 71.6648L79.2004 63.6678L85.1981 59.208L90.7344 89.1965L90.4268 89.3503L63.0527 75.9708L69.0504 71.3572Z" fill="#10099F"/>
<path d="M100.269 50.7497L116.263 43.3679L118.723 48.5967L109.035 53.2103L111.034 57.5163L119.339 53.6717L121.645 58.5928L113.341 62.4375L115.494 67.0511L125.798 62.2837L128.258 67.5125L111.803 75.2018L100.269 50.7497Z" fill="#C4C4C4"/>
<path d="M100.269 50.7497L116.263 43.3679L118.723 48.5967L109.035 53.2103L111.034 57.5163L119.339 53.6717L121.645 58.5928L113.341 62.4375L115.494 67.0511L125.798 62.2837L128.258 67.5125L111.803 75.2018L100.269 50.7497Z" fill="#10099F"/>
<path d="M140.715 62.8988L134.563 36.755L144.098 34.6019C150.404 33.2179 155.325 35.2171 156.709 41.061C157.632 44.9057 156.247 47.8276 153.633 49.6731L161.169 58.1314L154.248 59.823L148.097 52.1337L145.175 52.7488L147.174 61.3609L140.715 62.8988ZM143.944 47.5201L147.328 46.7511C149.327 46.2898 150.557 45.0595 150.096 42.5989C149.635 40.2921 147.789 39.6769 145.79 40.1383L142.56 40.9072L143.944 47.5201Z" fill="#C4C4C4"/>
<path d="M140.715 62.8988L134.563 36.755L144.098 34.6019C150.404 33.2179 155.325 35.2171 156.709 41.061C157.632 44.9057 156.247 47.8276 153.633 49.6731L161.169 58.1314L154.248 59.823L148.097 52.1337L145.175 52.7488L147.174 61.3609L140.715 62.8988ZM143.944 47.5201L147.328 46.7511C149.327 46.2898 150.557 45.0595 150.096 42.5989C149.635 40.2921 147.789 39.6769 145.79 40.1383L142.56 40.9072L143.944 47.5201Z" fill="#10099F"/>
<path d="M182.545 29.2195C185.159 29.2195 187.928 29.6808 189.773 30.296L189.927 36.6013C188.235 35.6785 185.774 35.0634 183.314 35.0634C180.853 35.0634 179.315 35.9861 179.315 37.3702C179.315 38.6005 181.007 39.5232 184.083 40.5997C188.696 42.2914 191.772 44.1368 191.926 48.9042C192.08 53.8254 188.389 56.9011 181.776 57.0549C178.7 57.0549 175.625 56.5936 173.625 55.8246L173.472 49.2118C175.471 50.1345 177.624 50.9035 179.931 51.0572C180.7 51.0572 181.315 51.0572 182.084 51.0572C184.237 50.9035 185.467 50.2883 185.467 49.058C185.467 47.6739 183.775 46.905 180.392 45.8285C175.778 44.2906 172.856 42.4452 172.703 37.524C172.395 32.7566 176.393 29.3733 182.545 29.2195Z" fill="#C4C4C4"/>
<path d="M182.545 29.2195C185.159 29.2195 187.928 29.6808 189.773 30.296L189.927 36.6013C188.235 35.6785 185.774 35.0634 183.314 35.0634C180.853 35.0634 179.315 35.9861 179.315 37.3702C179.315 38.6005 181.007 39.5232 184.083 40.5997C188.696 42.2914 191.772 44.1368 191.926 48.9042C192.08 53.8254 188.389 56.9011 181.776 57.0549C178.7 57.0549 175.625 56.5936 173.625 55.8246L173.472 49.2118C175.471 50.1345 177.624 50.9035 179.931 51.0572C180.7 51.0572 181.315 51.0572 182.084 51.0572C184.237 50.9035 185.467 50.2883 185.467 49.058C185.467 47.6739 183.775 46.905 180.392 45.8285C175.778 44.2906 172.856 42.4452 172.703 37.524C172.395 32.7566 176.393 29.3733 182.545 29.2195Z" fill="#10099F"/>
<path d="M205.459 57.6701L209.15 31.0649L215.917 31.9877L212.226 58.5928L205.459 57.6701Z" fill="#C4C4C4"/>
<path d="M205.459 57.6701L209.15 31.0649L215.917 31.9877L212.226 58.5928L205.459 57.6701Z" fill="#10099F"/>
<path d="M232.987 35.3708L253.133 41.8299L251.442 47.3662L244.675 45.2132L238.216 65.3593L231.603 63.2063L238.062 43.0602L231.295 40.9072L232.987 35.3708Z" fill="#C4C4C4"/>
<path d="M232.987 35.3708L253.133 41.8299L251.442 47.3662L244.675 45.2132L238.216 65.3593L231.603 63.2063L238.062 43.0602L231.295 40.9072L232.987 35.3708Z" fill="#10099F"/>
<path d="M254.056 71.0496L279.277 54.1331L279.585 54.2868L277.432 84.5829L271.28 81.0458L271.742 76.586L263.899 72.1261L260.208 74.7405L254.056 71.0496ZM272.357 71.511C272.664 69.2042 272.972 66.436 273.433 64.7444C272.664 65.3595 269.435 67.9739 268.051 69.0504L272.357 71.511Z" fill="#C4C4C4"/>
<path d="M254.056 71.0496L279.277 54.1331L279.585 54.2868L277.432 84.5829L271.28 81.0458L271.742 76.586L263.899 72.1261L260.208 74.7405L254.056 71.0496ZM272.357 71.511C272.664 69.2042 272.972 66.436 273.433 64.7444C272.664 65.3595 269.435 67.9739 268.051 69.0504L272.357 71.511Z" fill="#10099F"/>
<path d="M303.114 70.5881L318.801 84.7365L314.956 89.0426L309.574 84.2752L295.579 99.9614L290.504 95.3478L304.652 79.6616L299.27 74.8942L303.114 70.5881Z" fill="#C4C4C4"/>
<path d="M303.114 70.5881L318.801 84.7365L314.956 89.0426L309.574 84.2752L295.579 99.9614L290.504 95.3478L304.652 79.6616L299.27 74.8942L303.114 70.5881Z" fill="#10099F"/>
<path d="M309.112 114.571L330.181 97.9622L334.333 103.345L313.418 119.954L309.112 114.571Z" fill="#C4C4C4"/>
<path d="M309.112 114.571L330.181 97.9622L334.333 103.345L313.418 119.954L309.112 114.571Z" fill="#10099F"/>
<path d="M350.173 126.874C351.403 129.181 352.326 131.796 352.48 133.795L346.943 136.871C347.097 135.025 346.482 132.411 345.252 130.258C344.021 128.105 342.637 127.182 341.407 127.797C340.33 128.412 340.33 130.258 340.638 133.487C341.253 138.255 341.099 141.946 336.793 144.252C332.487 146.559 328.028 144.867 324.798 138.87C323.26 136.255 322.337 133.18 322.184 131.027L327.874 127.951C327.874 130.104 328.335 132.411 329.258 134.41C329.565 135.025 329.873 135.794 330.181 136.255C331.411 138.101 332.487 138.87 333.41 138.408C334.64 137.793 334.487 135.948 334.025 132.411C333.41 127.643 333.564 124.106 337.87 121.799C342.484 119.493 347.251 121.492 350.173 126.874Z" fill="#C4C4C4"/>
<path d="M350.173 126.874C351.403 129.181 352.326 131.796 352.48 133.795L346.943 136.871C347.097 135.025 346.482 132.411 345.252 130.258C344.021 128.105 342.637 127.182 341.407 127.797C340.33 128.412 340.33 130.258 340.638 133.487C341.253 138.255 341.099 141.946 336.793 144.252C332.487 146.559 328.028 144.867 324.798 138.87C323.26 136.255 322.337 133.18 322.184 131.027L327.874 127.951C327.874 130.104 328.335 132.411 329.258 134.41C329.565 135.025 329.873 135.794 330.181 136.255C331.411 138.101 332.487 138.87 333.41 138.408C334.64 137.793 334.487 135.948 334.025 132.411C333.41 127.643 333.564 124.106 337.87 121.799C342.484 119.493 347.251 121.492 350.173 126.874Z" fill="#10099F"/>
<path d="M341.253 179.777L367.551 174.395L368.935 181.007L342.638 186.39L341.253 179.777Z" fill="#C4C4C4"/>
<path d="M341.253 179.777L367.551 174.395L368.935 181.007L342.638 186.39L341.253 179.777Z" fill="#10099F"/>
<path d="M372.472 209.15C372.626 211.765 372.164 214.533 371.395 216.378L365.09 216.686C366.013 214.994 366.628 212.534 366.474 210.073C366.32 207.613 365.398 206.075 364.167 206.075C362.937 206.075 362.168 207.766 360.938 210.842C359.246 215.456 357.554 218.531 352.787 218.685C347.866 218.839 344.636 215.302 344.483 208.535C344.329 205.46 344.79 202.384 345.559 200.385L352.172 200.077C351.249 202.076 350.634 204.383 350.48 206.536C350.48 207.305 350.48 207.92 350.48 208.689C350.788 210.842 351.403 212.072 352.48 212.072C353.864 212.072 354.479 210.381 355.709 206.997C357.247 202.384 358.939 199.462 363.86 199.308C368.935 199.001 372.164 202.999 372.472 209.15Z" fill="#C4C4C4"/>
<path d="M372.472 209.15C372.626 211.765 372.164 214.533 371.395 216.378L365.09 216.686C366.013 214.994 366.628 212.534 366.474 210.073C366.32 207.613 365.398 206.075 364.167 206.075C362.937 206.075 362.168 207.766 360.938 210.842C359.246 215.456 357.554 218.531 352.787 218.685C347.866 218.839 344.636 215.302 344.483 208.535C344.329 205.46 344.79 202.384 345.559 200.385L352.172 200.077C351.249 202.076 350.634 204.383 350.48 206.536C350.48 207.305 350.48 207.92 350.48 208.689C350.788 210.842 351.403 212.072 352.48 212.072C353.864 212.072 354.479 210.381 355.709 206.997C357.247 202.384 358.939 199.462 363.86 199.308C368.935 199.001 372.164 202.999 372.472 209.15Z" fill="#10099F"/>
<path d="M344.483 232.218L371.088 236.217L370.012 242.983L349.097 239.754L347.713 249.289L342.022 248.366L344.483 232.218Z" fill="#C4C4C4"/>
<path d="M344.483 232.218L371.088 236.217L370.012 242.983L349.097 239.754L347.713 249.289L342.022 248.366L344.483 232.218Z" fill="#10099F"/>
<path d="M339.869 258.362L360.631 280.354L360.477 280.661L330.334 283.583L332.795 276.97L337.255 276.663L340.484 268.204L337.255 264.975L339.869 258.362ZM342.484 276.355C344.79 276.201 347.712 276.201 349.404 276.201C348.635 275.586 345.713 272.818 344.329 271.588L342.484 276.355Z" fill="#C4C4C4"/>
<path d="M339.869 258.362L360.631 280.354L360.477 280.661L330.334 283.583L332.795 276.97L337.255 276.663L340.484 268.204L337.255 264.975L339.869 258.362ZM342.484 276.355C344.79 276.201 347.712 276.201 349.404 276.201C348.635 275.586 345.713 272.818 344.329 271.588L342.484 276.355Z" fill="#10099F"/>
<path d="M347.251 309.419L329.565 314.033C328.643 314.341 327.72 314.494 326.797 314.802L338.024 322.338L334.333 327.874L311.726 312.649L311.88 312.495L329.565 307.882L332.18 307.113L320.953 299.577L324.644 294.041L347.251 309.266V309.419Z" fill="#C4C4C4"/>
<path d="M347.251 309.419L329.565 314.033C328.643 314.341 327.72 314.494 326.797 314.802L338.024 322.338L334.333 327.874L311.726 312.649L311.88 312.495L329.565 307.882L332.18 307.113L320.953 299.577L324.644 294.041L347.251 309.266V309.419Z" fill="#10099F"/>
<path d="M302.499 324.337L320.8 344.021L314.187 350.173C307.266 356.478 299.116 356.324 293.887 350.634C288.658 344.944 289.119 336.793 295.886 330.488L302.499 324.337ZM299.731 334.64C295.732 338.331 296.04 342.945 298.808 346.021C301.576 349.096 306.19 349.712 310.188 346.021L311.726 344.637L301.269 333.41L299.731 334.64Z" fill="#C4C4C4"/>
<path d="M302.499 324.337L320.8 344.021L314.187 350.173C307.266 356.478 299.116 356.324 293.887 350.634C288.658 344.944 289.119 336.793 295.886 330.488L302.499 324.337ZM299.731 334.64C295.732 338.331 296.04 342.945 298.808 346.021C301.576 349.096 306.19 349.712 310.188 346.021L311.726 344.637L301.269 333.41L299.731 334.64Z" fill="#10099F"/>
<path d="M273.433 348.174L287.735 370.934L281.892 374.625L267.589 351.865L273.433 348.174Z" fill="#C4C4C4"/>
<path d="M273.433 348.174L287.735 370.934L281.892 374.625L267.589 351.865L273.433 348.174Z" fill="#10099F"/>
<path d="M257.286 358.016L254.825 388.312L254.517 388.466L232.218 368.012L238.831 365.398L242.061 368.474L250.519 365.09L250.673 360.63L257.286 358.016ZM245.598 372.011C247.289 373.702 249.289 375.702 250.365 377.086C250.365 376.163 250.365 372.011 250.365 370.165L245.598 372.011Z" fill="#C4C4C4"/>
<path d="M257.286 358.016L254.825 388.312L254.517 388.466L232.218 368.012L238.831 365.398L242.061 368.474L250.519 365.09L250.673 360.63L257.286 358.016ZM245.598 372.011C247.289 373.702 249.289 375.702 250.365 377.086C250.365 376.163 250.365 372.011 250.365 370.165L245.598 372.011Z" fill="#10099F"/>
<path d="M224.683 397.232L207.305 400L206.382 394.31L216.994 392.618L216.225 387.851L207.151 389.389L206.228 384.006L215.302 382.468L214.533 377.393L203.306 379.239L202.384 373.549L220.377 370.627L224.683 397.232Z" fill="#C4C4C4"/>
<path d="M224.683 397.232L207.305 400L206.382 394.31L216.994 392.618L216.225 387.851L207.151 389.389L206.228 384.006L215.302 382.468L214.533 377.393L203.306 379.239L202.384 373.549L220.377 370.627L224.683 397.232Z" fill="#10099F"/>
<path d="M112.726 271.434C115.186 271.28 113.649 264.821 115.802 263.591C118.108 262.207 122.722 260.977 123.952 264.975C126.259 264.821 129.335 263.591 130.257 262.668C136.87 255.286 128.873 249.135 127.797 248.52C125.951 247.443 121.03 245.905 120.108 248.212C120.723 249.443 122.568 248.674 123.952 249.135C125.336 249.596 126.874 250.673 127.489 251.749C128.412 253.133 128.104 255.286 125.951 255.594C124.875 255.748 121.799 253.902 118.877 253.902C113.495 253.749 104.267 257.132 102.422 252.518C101.192 249.289 106.728 232.218 109.496 225.298C109.958 224.221 111.342 221.299 109.958 221.146C109.958 221.146 109.496 220.992 109.189 221.453C107.805 224.837 98.4236 249.289 97.5009 253.441C96.7319 256.978 96.8857 259.746 98.4236 261.438C100.115 263.283 102.114 263.283 104.575 263.13C108.574 262.822 110.727 263.591 111.649 266.82C112.111 268.205 112.264 269.435 112.726 271.434Z" fill="#C4C4C4"/>
<path d="M112.726 271.434C115.186 271.28 113.649 264.821 115.802 263.591C118.108 262.207 122.722 260.977 123.952 264.975C126.259 264.821 129.335 263.591 130.257 262.668C136.87 255.286 128.873 249.135 127.797 248.52C125.951 247.443 121.03 245.905 120.108 248.212C120.723 249.443 122.568 248.674 123.952 249.135C125.336 249.596 126.874 250.673 127.489 251.749C128.412 253.133 128.104 255.286 125.951 255.594C124.875 255.748 121.799 253.902 118.877 253.902C113.495 253.749 104.267 257.132 102.422 252.518C101.192 249.289 106.728 232.218 109.496 225.298C109.958 224.221 111.342 221.299 109.958 221.146C109.958 221.146 109.496 220.992 109.189 221.453C107.805 224.837 98.4236 249.289 97.5009 253.441C96.7319 256.978 96.8857 259.746 98.4236 261.438C100.115 263.283 102.114 263.283 104.575 263.13C108.574 262.822 110.727 263.591 111.649 266.82C112.111 268.205 112.264 269.435 112.726 271.434Z" fill="#10099F"/>
<path d="M124.413 295.732C126.874 293.118 133.641 291.734 135.178 286.967C135.332 286.505 135.332 284.814 134.41 284.66C133.179 284.506 133.333 285.736 132.257 286.044C130.104 286.813 127.643 286.044 124.875 286.044C120.876 286.044 116.416 286.659 116.263 289.581C118.877 292.042 122.26 292.195 122.722 297.885C123.952 298.039 124.106 296.655 124.413 295.732Z" fill="#C4C4C4"/>
<path d="M124.413 295.732C126.874 293.118 133.641 291.734 135.178 286.967C135.332 286.505 135.332 284.814 134.41 284.66C133.179 284.506 133.333 285.736 132.257 286.044C130.104 286.813 127.643 286.044 124.875 286.044C120.876 286.044 116.416 286.659 116.263 289.581C118.877 292.042 122.26 292.195 122.722 297.885C123.952 298.039 124.106 296.655 124.413 295.732Z" fill="#10099F"/>
<path d="M123.491 226.067C121.492 229.296 126.413 230.988 128.566 231.757C132.103 233.141 136.409 231.142 138.562 228.374C139.023 227.759 139.792 226.067 139.946 225.452C140.254 224.375 140.254 223.914 139.485 223.606C138.87 223.299 137.947 222.837 136.87 222.376C133.641 224.529 128.873 228.835 123.491 226.067Z" fill="#C4C4C4"/>
<path d="M123.491 226.067C121.492 229.296 126.413 230.988 128.566 231.757C132.103 233.141 136.409 231.142 138.562 228.374C139.023 227.759 139.792 226.067 139.946 225.452C140.254 224.375 140.254 223.914 139.485 223.606C138.87 223.299 137.947 222.837 136.87 222.376C133.641 224.529 128.873 228.835 123.491 226.067Z" fill="#10099F"/>
<path d="M124.875 280.661C127.489 280.661 129.796 282.199 132.257 282.199C134.102 282.199 138.408 281.584 139.331 277.586C133.641 277.586 130.104 276.817 125.798 274.971C123.952 274.202 122.107 272.357 120.261 272.818C117.955 273.433 115.494 276.048 111.342 276.048C111.803 278.508 113.649 281.276 116.417 281.892C119.031 282.507 121.799 280.661 124.875 280.661Z" fill="#C4C4C4"/>
<path d="M124.875 280.661C127.489 280.661 129.796 282.199 132.257 282.199C134.102 282.199 138.408 281.584 139.331 277.586C133.641 277.586 130.104 276.817 125.798 274.971C123.952 274.202 122.107 272.357 120.261 272.818C117.955 273.433 115.494 276.048 111.342 276.048C111.803 278.508 113.649 281.276 116.417 281.892C119.031 282.507 121.799 280.661 124.875 280.661Z" fill="#10099F"/>
<path d="M117.493 213.918C117.493 214.379 117.955 214.994 117.955 215.456C120.723 214.533 124.106 215.763 123.491 219.3C123.337 220.069 123.029 220.684 122.261 220.992C122.876 222.684 122.722 222.837 124.106 223.914C123.952 223.453 123.952 223.299 124.106 222.376C125.49 221.607 127.182 220.992 127.643 218.685C130.257 220.377 129.181 223.145 128.873 224.068C131.642 223.453 133.795 222.53 135.179 221.146C131.795 219.762 128.873 214.225 124.26 213.149C122.261 212.534 119.339 212.534 117.493 213.918Z" fill="#C4C4C4"/>
<path d="M117.493 213.918C117.493 214.379 117.955 214.994 117.955 215.456C120.723 214.533 124.106 215.763 123.491 219.3C123.337 220.069 123.029 220.684 122.261 220.992C122.876 222.684 122.722 222.837 124.106 223.914C123.952 223.453 123.952 223.299 124.106 222.376C125.49 221.607 127.182 220.992 127.643 218.685C130.257 220.377 129.181 223.145 128.873 224.068C131.642 223.453 133.795 222.53 135.179 221.146C131.795 219.762 128.873 214.225 124.26 213.149C122.261 212.534 119.339 212.534 117.493 213.918Z" fill="#10099F"/>
<path d="M194.54 76.4321C190.849 76.2783 187.159 76.1245 183.468 76.2783C183.314 76.2783 183.006 76.2783 182.853 76.2783C181.161 76.2783 179.469 76.4321 177.931 76.4321C177.47 76.4321 177.162 76.4321 176.701 76.5859C175.163 76.7397 173.472 76.7397 171.934 77.0472C171.626 77.0472 171.319 77.0472 171.165 77.201C168.397 77.5086 165.628 77.8162 163.014 78.2775C162.245 78.4313 161.322 78.5851 160.553 78.7389C159.477 78.8927 158.554 79.2003 157.478 79.354C156.401 79.5078 155.325 79.8154 154.402 80.123C153.479 80.2768 152.556 80.5843 151.48 80.8919C150.403 81.1995 149.327 81.5071 148.097 81.8146C147.174 82.1222 146.251 82.276 145.329 82.5836C144.252 82.8911 143.022 83.3525 141.945 83.6601C141.022 83.9677 140.254 84.2752 139.331 84.5828C138.101 85.0442 136.87 85.5055 135.486 85.9669C133.794 86.7358 131.949 87.351 130.257 88.1199C129.642 88.4275 129.027 88.5813 128.566 88.8888C127.182 89.504 125.951 90.1191 124.567 90.8881C124.106 91.0419 123.798 91.3494 123.337 91.5032C121.953 92.2722 120.415 93.0411 119.031 93.81C118.877 93.9638 118.723 93.9638 118.57 94.1176C115.34 95.6555 112.264 97.5009 109.189 99.6539C108.573 100.115 108.112 100.73 107.804 101.346C107.497 102.268 107.497 103.499 108.112 104.421L119.8 123.798C101.345 139.946 86.4281 145.636 76.5857 151.788C75.663 155.325 81.0455 165.321 96.2705 158.093C82.5834 169.166 72.7411 184.391 72.8948 188.543C73.0486 191.772 73.9714 192.695 82.891 194.387C88.5811 195.463 95.8091 196.386 98.7311 201.153C104.883 211.303 109.496 213.764 114.725 212.687C115.648 212.534 117.032 211.611 117.801 210.996C125.644 205.152 130.719 210.996 134.871 214.687C138.562 217.916 138.869 218.839 143.637 220.684C149.942 223.145 159.016 218.993 166.244 220.992C167.012 221.299 167.935 221.299 167.935 219.3C167.935 218.685 167.935 218.377 166.244 217.609C152.864 214.071 141.022 201.461 128.412 200.384C122.722 199.769 119.954 202.537 115.648 204.229C112.879 205.306 106.882 206.536 105.959 200.846C105.805 193.618 112.264 189.312 117.185 189.158C128.873 189.004 139.177 188.389 146.251 187.313C146.251 187.313 151.019 186.544 151.326 186.39C159.477 185.775 176.086 198.078 183.006 207.92C193.925 223.452 211.918 239.754 226.374 239.293C210.534 243.599 195.771 238.37 184.237 220.069C183.929 219.608 183.468 219.146 183.006 218.839C185.928 224.99 186.851 233.141 185.928 245.598C185.774 248.981 186.39 250.827 189.158 254.517C203.768 274.356 189.312 289.888 189.312 290.042C176.086 303.114 149.327 308.497 146.251 309.419C123.952 316.186 124.567 302.038 123.952 301.269C123.337 300.654 122.107 300.654 121.953 301.269C121.338 303.114 121.03 307.574 121.492 308.804C122.568 311.88 123.183 313.572 128.104 316.032C132.718 318.339 141.176 318.185 144.713 317.878C154.248 317.109 165.628 316.032 176.855 312.956C186.697 310.188 192.695 308.958 182.699 323.722C174.394 332.949 156.247 341.561 145.636 348.174C152.403 350.173 159.477 351.711 166.705 352.787C198.385 338.639 200.692 287.582 207.305 276.97C210.227 272.203 223.145 272.357 229.142 274.048L228.835 276.355C225.913 292.964 232.064 298.039 228.989 306.805C218.839 335.563 207.92 346.79 193.002 354.018C201.768 353.556 210.38 352.326 218.531 350.327C222.376 344.944 227.297 336.793 230.065 331.565C235.755 320.338 239.6 308.189 240.83 295.732C244.982 298.193 249.135 300.654 253.133 303.422C256.978 312.803 255.594 326.182 251.595 337.716C253.748 336.486 256.516 334.948 258.67 333.718C259.285 333.256 260.054 332.795 260.669 332.487C263.129 326.028 264.667 319.108 264.821 312.495C265.744 313.264 266.666 313.879 267.589 314.648C270.511 316.955 273.433 318.954 276.509 320.953C282.353 315.878 287.889 310.342 292.81 304.344C271.588 297.116 295.578 278.662 262.36 270.973C296.809 273.587 285.582 289.12 296.809 299.269C301.115 293.579 304.959 287.582 308.497 281.276C308.497 281.276 308.497 281.276 308.497 281.123C318.185 263.283 323.721 243.752 324.952 223.299C329.412 147.02 270.972 81.0457 194.54 76.4321ZM84.1213 186.236C81.8145 185.159 83.9675 181.93 88.8887 175.163C125.029 125.644 221.299 153.018 227.297 152.095C231.911 151.326 165.936 117.339 117.185 143.022C108.727 147.482 88.7349 155.786 87.5046 152.095C87.5046 152.095 111.034 140.254 121.338 131.026C121.953 130.411 122.722 129.95 123.337 129.489C124.875 128.258 126.413 127.182 128.104 125.951C146.559 114.879 167.935 109.65 189.619 111.034C247.904 114.571 292.656 163.783 289.119 220.992C288.966 224.837 288.504 228.527 287.735 232.218C284.967 228.681 282.507 225.298 282.353 224.683C282.353 224.683 289.888 132.411 192.387 117.647C174.702 115.033 155.786 117.801 142.868 125.336C147.174 125.183 151.326 125.029 154.863 124.414C199.923 116.724 276.355 143.637 273.587 213.61C273.433 215.917 243.906 168.55 197.001 159.785C144.406 149.942 119.954 164.86 119.954 164.86C119.954 164.86 154.71 160.4 192.08 167.782C234.833 176.24 267.435 209.765 284.506 242.368C283.275 244.675 269.281 243.599 265.897 239.293C254.979 225.759 225.759 190.696 187.774 181.622C110.573 163.168 87.197 187.62 84.1213 186.236ZM228.835 221.146C215.302 222.222 206.843 196.386 183.006 188.697C211.457 190.542 217.762 213.456 228.835 221.146ZM167.474 187.928C190.849 189.158 217.608 229.45 229.758 232.372C212.38 233.756 185.774 194.387 167.474 187.928ZM189.465 232.833C204.844 264.821 218.685 240.984 231.449 265.129C220.377 256.055 193.002 274.356 189.465 232.833ZM278.047 310.035C263.591 289.427 236.524 293.272 240.061 271.28C245.29 286.044 270.972 271.588 278.047 310.035ZM263.283 276.355C204.844 251.903 251.595 234.064 231.295 214.994C260.361 238.216 224.067 254.517 263.283 276.355ZM296.809 279.738C291.734 253.287 245.444 270.511 252.057 235.602C259.9 266.974 301.576 233.295 296.809 279.738ZM318.031 222.991C317.109 239.446 313.11 254.979 306.497 269.742C304.037 259.592 299.423 249.289 292.349 238.524C293.579 232.833 294.502 227.143 294.809 221.299C298.347 161.169 251.442 109.189 190.081 105.652C167.781 104.268 145.944 109.496 126.874 120.569C126.566 120.569 126.413 120.723 126.105 120.723L115.801 103.652C139.331 88.735 166.244 81.8146 194.233 83.5063C266.82 87.6585 322.337 150.404 318.031 222.991Z" fill="#C4C4C4"/>
<path d="M194.54 76.4321C190.849 76.2783 187.159 76.1245 183.468 76.2783C183.314 76.2783 183.006 76.2783 182.853 76.2783C181.161 76.2783 179.469 76.4321 177.931 76.4321C177.47 76.4321 177.162 76.4321 176.701 76.5859C175.163 76.7397 173.472 76.7397 171.934 77.0472C171.626 77.0472 171.319 77.0472 171.165 77.201C168.397 77.5086 165.628 77.8162 163.014 78.2775C162.245 78.4313 161.322 78.5851 160.553 78.7389C159.477 78.8927 158.554 79.2003 157.478 79.354C156.401 79.5078 155.325 79.8154 154.402 80.123C153.479 80.2768 152.556 80.5843 151.48 80.8919C150.403 81.1995 149.327 81.5071 148.097 81.8146C147.174 82.1222 146.251 82.276 145.329 82.5836C144.252 82.8911 143.022 83.3525 141.945 83.6601C141.022 83.9677 140.254 84.2752 139.331 84.5828C138.101 85.0442 136.87 85.5055 135.486 85.9669C133.794 86.7358 131.949 87.351 130.257 88.1199C129.642 88.4275 129.027 88.5813 128.566 88.8888C127.182 89.504 125.951 90.1191 124.567 90.8881C124.106 91.0419 123.798 91.3494 123.337 91.5032C121.953 92.2722 120.415 93.0411 119.031 93.81C118.877 93.9638 118.723 93.9638 118.57 94.1176C115.34 95.6555 112.264 97.5009 109.189 99.6539C108.573 100.115 108.112 100.73 107.804 101.346C107.497 102.268 107.497 103.499 108.112 104.421L119.8 123.798C101.345 139.946 86.4281 145.636 76.5857 151.788C75.663 155.325 81.0455 165.321 96.2705 158.093C82.5834 169.166 72.7411 184.391 72.8948 188.543C73.0486 191.772 73.9714 192.695 82.891 194.387C88.5811 195.463 95.8091 196.386 98.7311 201.153C104.883 211.303 109.496 213.764 114.725 212.687C115.648 212.534 117.032 211.611 117.801 210.996C125.644 205.152 130.719 210.996 134.871 214.687C138.562 217.916 138.869 218.839 143.637 220.684C149.942 223.145 159.016 218.993 166.244 220.992C167.012 221.299 167.935 221.299 167.935 219.3C167.935 218.685 167.935 218.377 166.244 217.609C152.864 214.071 141.022 201.461 128.412 200.384C122.722 199.769 119.954 202.537 115.648 204.229C112.879 205.306 106.882 206.536 105.959 200.846C105.805 193.618 112.264 189.312 117.185 189.158C128.873 189.004 139.177 188.389 146.251 187.313C146.251 187.313 151.019 186.544 151.326 186.39C159.477 185.775 176.086 198.078 183.006 207.92C193.925 223.452 211.918 239.754 226.374 239.293C210.534 243.599 195.771 238.37 184.237 220.069C183.929 219.608 183.468 219.146 183.006 218.839C185.928 224.99 186.851 233.141 185.928 245.598C185.774 248.981 186.39 250.827 189.158 254.517C203.768 274.356 189.312 289.888 189.312 290.042C176.086 303.114 149.327 308.497 146.251 309.419C123.952 316.186 124.567 302.038 123.952 301.269C123.337 300.654 122.107 300.654 121.953 301.269C121.338 303.114 121.03 307.574 121.492 308.804C122.568 311.88 123.183 313.572 128.104 316.032C132.718 318.339 141.176 318.185 144.713 317.878C154.248 317.109 165.628 316.032 176.855 312.956C186.697 310.188 192.695 308.958 182.699 323.722C174.394 332.949 156.247 341.561 145.636 348.174C152.403 350.173 159.477 351.711 166.705 352.787C198.385 338.639 200.692 287.582 207.305 276.97C210.227 272.203 223.145 272.357 229.142 274.048L228.835 276.355C225.913 292.964 232.064 298.039 228.989 306.805C218.839 335.563 207.92 346.79 193.002 354.018C201.768 353.556 210.38 352.326 218.531 350.327C222.376 344.944 227.297 336.793 230.065 331.565C235.755 320.338 239.6 308.189 240.83 295.732C244.982 298.193 249.135 300.654 253.133 303.422C256.978 312.803 255.594 326.182 251.595 337.716C253.748 336.486 256.516 334.948 258.67 333.718C259.285 333.256 260.054 332.795 260.669 332.487C263.129 326.028 264.667 319.108 264.821 312.495C265.744 313.264 266.666 313.879 267.589 314.648C270.511 316.955 273.433 318.954 276.509 320.953C282.353 315.878 287.889 310.342 292.81 304.344C271.588 297.116 295.578 278.662 262.36 270.973C296.809 273.587 285.582 289.12 296.809 299.269C301.115 293.579 304.959 287.582 308.497 281.276C308.497 281.276 308.497 281.276 308.497 281.123C318.185 263.283 323.721 243.752 324.952 223.299C329.412 147.02 270.972 81.0457 194.54 76.4321ZM84.1213 186.236C81.8145 185.159 83.9675 181.93 88.8887 175.163C125.029 125.644 221.299 153.018 227.297 152.095C231.911 151.326 165.936 117.339 117.185 143.022C108.727 147.482 88.7349 155.786 87.5046 152.095C87.5046 152.095 111.034 140.254 121.338 131.026C121.953 130.411 122.722 129.95 123.337 129.489C124.875 128.258 126.413 127.182 128.104 125.951C146.559 114.879 167.935 109.65 189.619 111.034C247.904 114.571 292.656 163.783 289.119 220.992C288.966 224.837 288.504 228.527 287.735 232.218C284.967 228.681 282.507 225.298 282.353 224.683C282.353 224.683 289.888 132.411 192.387 117.647C174.702 115.033 155.786 117.801 142.868 125.336C147.174 125.183 151.326 125.029 154.863 124.414C199.923 116.724 276.355 143.637 273.587 213.61C273.433 215.917 243.906 168.55 197.001 159.785C144.406 149.942 119.954 164.86 119.954 164.86C119.954 164.86 154.71 160.4 192.08 167.782C234.833 176.24 267.435 209.765 284.506 242.368C283.275 244.675 269.281 243.599 265.897 239.293C254.979 225.759 225.759 190.696 187.774 181.622C110.573 163.168 87.197 187.62 84.1213 186.236ZM228.835 221.146C215.302 222.222 206.843 196.386 183.006 188.697C211.457 190.542 217.762 213.456 228.835 221.146ZM167.474 187.928C190.849 189.158 217.608 229.45 229.758 232.372C212.38 233.756 185.774 194.387 167.474 187.928ZM189.465 232.833C204.844 264.821 218.685 240.984 231.449 265.129C220.377 256.055 193.002 274.356 189.465 232.833ZM278.047 310.035C263.591 289.427 236.524 293.272 240.061 271.28C245.29 286.044 270.972 271.588 278.047 310.035ZM263.283 276.355C204.844 251.903 251.595 234.064 231.295 214.994C260.361 238.216 224.067 254.517 263.283 276.355ZM296.809 279.738C291.734 253.287 245.444 270.511 252.057 235.602C259.9 266.974 301.576 233.295 296.809 279.738ZM318.031 222.991C317.109 239.446 313.11 254.979 306.497 269.742C304.037 259.592 299.423 249.289 292.349 238.524C293.579 232.833 294.502 227.143 294.809 221.299C298.347 161.169 251.442 109.189 190.081 105.652C167.781 104.268 145.944 109.496 126.874 120.569C126.566 120.569 126.413 120.723 126.105 120.723L115.801 103.652C139.331 88.735 166.244 81.8146 194.233 83.5063C266.82 87.6585 322.337 150.404 318.031 222.991Z" fill="#10099F"/>
</g>
<defs>
<clipPath id="clip0_1_15">
<rect width="861.207" height="400" fill="white"/>
</clipPath>
</defs>
</svg>
